  0
SECTION
  2
HEADER
  9
$ACADVER
  1
AC1014
  9
$ACADMAINTVER
 70
     9
  9
$DWGCODEPAGE
  3
ANSI_1252
  9
$INSBASE
 10
0.0
 20
0.0
 30
0.0
  9
$EXTMIN
 10
1.000000000000000E+20
 20
1.000000000000000E+20
 30
1.000000000000000E+20
  9
$EXTMAX
 10
-1.000000000000000E+20
 20
-1.000000000000000E+20
 30
-1.000000000000000E+20
  9
$LIMMIN
 10
0.0
 20
0.0
  9
$LIMMAX
 10
12.0
 20
9.0
  9
$ORTHOMODE
 70
     0
  9
$REGENMODE
 70
     1
  9
$FILLMODE
 70
     1
  9
$QTEXTMODE
 70
     0
  9
$MIRRTEXT
 70
     1
  9
$DRAGMODE
 70
     2
  9
$LTSCALE
 40
1.0
  9
$OSMODE
 70
    37
  9
$ATTMODE
 70
     1
  9
$TEXTSIZE
 40
0.2
  9
$TRACEWID
 40
0.05
  9
$TEXTSTYLE
  7
STANDARD
  9
$CLAYER
  8
0
  9
$CELTYPE
  6
BYLAYER
  9
$CECOLOR
 62
   256
  9
$CELTSCALE
 40
1.0
  9
$DELOBJ
 70
     1
  9
$DISPSILH
 70
     0
  9
$DIMSCALE
 40
1.0
  9
$DIMASZ
 40
0.18
  9
$DIMEXO
 40
0.0625
  9
$DIMDLI
 40
0.38
  9
$DIMRND
 40
0.0
  9
$DIMDLE
 40
0.0
  9
$DIMEXE
 40
0.18
  9
$DIMTP
 40
0.0
  9
$DIMTM
 40
0.0
  9
$DIMTXT
 40
0.18
  9
$DIMCEN
 40
0.09
  9
$DIMTSZ
 40
0.0
  9
$DIMTOL
 70
     0
  9
$DIMLIM
 70
     0
  9
$DIMTIH
 70
     1
  9
$DIMTOH
 70
     1
  9
$DIMSE1
 70
     0
  9
$DIMSE2
 70
     0
  9
$DIMTAD
 70
     0
  9
$DIMZIN
 70
     0
  9
$DIMBLK
  1

  9
$DIMASO
 70
     1
  9
$DIMSHO
 70
     1
  9
$DIMPOST
  1

  9
$DIMAPOST
  1

  9
$DIMALT
 70
     0
  9
$DIMALTD
 70
     2
  9
$DIMALTF
 40
25.4
  9
$DIMLFAC
 40
1.0
  9
$DIMTOFL
 70
     0
  9
$DIMTVP
 40
0.0
  9
$DIMTIX
 70
     0
  9
$DIMSOXD
 70
     0
  9
$DIMSAH
 70
     0
  9
$DIMBLK1
  1

  9
$DIMBLK2
  1

  9
$DIMSTYLE
  2
STANDARD
  9
$DIMCLRD
 70
     0
  9
$DIMCLRE
 70
     0
  9
$DIMCLRT
 70
     0
  9
$DIMTFAC
 40
1.0
  9
$DIMGAP
 40
0.09
  9
$DIMJUST
 70
     0
  9
$DIMSD1
 70
     0
  9
$DIMSD2
 70
     0
  9
$DIMTOLJ
 70
     1
  9
$DIMTZIN
 70
     0
  9
$DIMALTZ
 70
     0
  9
$DIMALTTZ
 70
     0
  9
$DIMFIT
 70
     3
  9
$DIMUPT
 70
     0
  9
$DIMUNIT
 70
     2
  9
$DIMDEC
 70
     4
  9
$DIMTDEC
 70
     4
  9
$DIMALTU
 70
     2
  9
$DIMALTTD
 70
     2
  9
$DIMTXSTY
  7
STANDARD
  9
$DIMAUNIT
 70
     0
  9
$LUNITS
 70
     2
  9
$LUPREC
 70
     4
  9
$SKETCHINC
 40
0.1
  9
$FILLETRAD
 40
0.5
  9
$AUNITS
 70
     0
  9
$AUPREC
 70
     0
  9
$MENU
  1
.
  9
$ELEVATION
 40
0.0
  9
$PELEVATION
 40
0.0
  9
$THICKNESS
 40
0.0
  9
$LIMCHECK
 70
     0
  9
$CHAMFERA
 40
0.5
  9
$CHAMFERB
 40
0.5
  9
$CHAMFERC
 40
1.0
  9
$CHAMFERD
 40
0.0
  9
$SKPOLY
 70
     0
  9
$TDCREATE
 40
2454834.300938276
  9
$TDUPDATE
 40
2454834.300938287
  9
$TDINDWG
 40
0.0000000116
  9
$TDUSRTIMER
 40
0.0000000116
  9
$USRTIMER
 70
     1
  9
$ANGBASE
 50
0.0
  9
$ANGDIR
 70
     0
  9
$PDMODE
 70
     0
  9
$PDSIZE
 40
0.0
  9
$PLINEWID
 40
0.0
  9
$COORDS
 70
     1
  9
$SPLFRAME
 70
     0
  9
$SPLINETYPE
 70
     6
  9
$SPLINESEGS
 70
     8
  9
$ATTDIA
 70
     0
  9
$ATTREQ
 70
     1
  9
$HANDLING
 70
     1
  9
$HANDSEED
  5
1B9
  9
$SURFTAB1
 70
     6
  9
$SURFTAB2
 70
     6
  9
$SURFTYPE
 70
     6
  9
$SURFU
 70
     6
  9
$SURFV
 70
     6
  9
$UCSNAME
  2

  9
$UCSORG
 10
0.0
 20
0.0
 30
0.0
  9
$UCSXDIR
 10
1.0
 20
0.0
 30
0.0
  9
$UCSYDIR
 10
0.0
 20
1.0
 30
0.0
  9
$PUCSNAME
  2

  9
$PUCSORG
 10
0.0
 20
0.0
 30
0.0
  9
$PUCSXDIR
 10
1.0
 20
0.0
 30
0.0
  9
$PUCSYDIR
 10
0.0
 20
1.0
 30
0.0
  9
$USERI1
 70
     0
  9
$USERI2
 70
     0
  9
$USERI3
 70
     0
  9
$USERI4
 70
     0
  9
$USERI5
 70
     0
  9
$USERR1
 40
0.0
  9
$USERR2
 40
0.0
  9
$USERR3
 40
0.0
  9
$USERR4
 40
0.0
  9
$USERR5
 40
0.0
  9
$WORLDVIEW
 70
     1
  9
$SHADEDGE
 70
     3
  9
$SHADEDIF
 70
    70
  9
$TILEMODE
 70
     1
  9
$MAXACTVP
 70
    64
  9
$PINSBASE
 10
0.0
 20
0.0
 30
0.0
  9
$PLIMCHECK
 70
     0
  9
$PEXTMIN
 10
1.000000000000000E+20
 20
1.000000000000000E+20
 30
1.000000000000000E+20
  9
$PEXTMAX
 10
-1.000000000000000E+20
 20
-1.000000000000000E+20
 30
-1.000000000000000E+20
  9
$PLIMMIN
 10
0.0
 20
0.0
  9
$PLIMMAX
 10
12.0
 20
9.0
  9
$UNITMODE
 70
     0
  9
$VISRETAIN
 70
     1
  9
$PLINEGEN
 70
     0
  9
$PSLTSCALE
 70
     1
  9
$TREEDEPTH
 70
  3020
  9
$PICKSTYLE
 70
     1
  9
$CMLSTYLE
  2
STANDARD
  9
$CMLJUST
 70
     0
  9
$CMLSCALE
 40
1.0
  9
$PROXYGRAPHICS
 70
     1
  9
$MEASUREMENT
 70
     0
  0
ENDSEC
  0
SECTION
  2
CLASSES
  0
CLASS
  1
ACDBDICTIONARYWDFLT
  2
AcDbDictionaryWithDefault
  3
ObjectDBX Classes
 90
        0
280
     0
281
     0
  0
CLASS
  1
VISUALSTYLE
  2
AcDbVisualStyle
  3
ObjectDBX Classes
 90
     4095
280
     0
281
     0
  0
CLASS
  1
XRECORD
  2
AcDbXrecord
  3
AutoCAD 2000
 90
        0
280
     0
281
     0
  0
CLASS
  1
LWPOLYLINE
  2
AcDbPolyline
  3
AutoCAD 2000
 90
        0
280
     0
281
     1
  0
CLASS
  1
HATCH
  2
AcDbHatch
  3
AutoCAD 2000
 90
        0
280
     0
281
     1
  0
CLASS
  1
ACDBPLACEHOLDER
  2
AcDbPlaceHolder
  3
ObjectDBX Classes
 90
        0
280
     0
281
     0
  0
CLASS
  1
LAYOUT
  2
AcDbLayout
  3
ObjectDBX Classes
 90
        0
280
     0
281
     0
  0
ENDSEC
  0
SECTION
  2
TABLES
  0
TABLE
  2
VPORT
  5
8
330
0
100
AcDbSymbolTable
 70
     1
  0
VPORT
  5
29
330
8
100
AcDbSymbolTableRecord
100
AcDbViewportTableRecord
  2
*ACTIVE
 70
     0
 10
0.0
 20
0.0
 11
1.0
 21
1.0
 12
0.0
 22
0.0
 13
0.0
 23
0.0
 14
0.5
 24
0.5
 15
0.5
 25
0.5
 16
0.0
 26
0.0
 36
1.0
 17
0.0
 27
0.0
 37
-1000.0
 40
1032.920449958098
 41
1.029345372460496
 42
50.0
 43
1462.772308653798
 44
1828.395222361248
 50
0.0
 51
0.0
 71
     0
 72
   100
 73
     1
 74
     3
 75
     0
 76
     0
 77
     0
 78
     0
  0
ENDTAB
  0
TABLE
  2
LTYPE
  5
5
330
0
100
AcDbSymbolTable
 70
     1
  0
LTYPE
  5
14
330
5
100
AcDbSymbolTableRecord
100
AcDbLinetypeTableRecord
  2
BYBLOCK
 70
     0
  3

 72
    65
 73
     0
 40
0.0
  0
LTYPE
  5
15
330
5
100
AcDbSymbolTableRecord
100
AcDbLinetypeTableRecord
  2
BYLAYER
 70
     0
  3

 72
    65
 73
     0
 40
0.0
  0
LTYPE
  5
16
330
5
100
AcDbSymbolTableRecord
100
AcDbLinetypeTableRecord
  2
CONTINUOUS
 70
     0
  3
Solid line
 72
    65
 73
     0
 40
0.0
  0
ENDTAB
  0
TABLE
  2
LAYER
  5
2
330
0
100
AcDbSymbolTable
 70
     3
  0
LAYER
  5
10
330
2
100
AcDbSymbolTableRecord
100
AcDbLayerTableRecord
  2
0
 70
     0
 62
     7
  6
CONTINUOUS
  0
LAYER
  5
3B
330
2
100
AcDbSymbolTableRecord
100
AcDbLayerTableRecord
  2
PROFILEEDGES
 70
     0
 62
     7
  6
CONTINUOUS
  0
LAYER
  5
3C
330
2
100
AcDbSymbolTableRecord
100
AcDbLayerTableRecord
  2
SECTIONCUTEDGES
 70
     0
 62
     7
  6
CONTINUOUS
  0
ENDTAB
  0
TABLE
  2
STYLE
  5
3
330
0
100
AcDbSymbolTable
 70
     1
  0
STYLE
  5
11
330
3
100
AcDbSymbolTableRecord
100
AcDbTextStyleTableRecord
  2
STANDARD
 70
     0
 40
0.0
 41
1.0
 50
0.0
 71
     0
 42
0.2
  3
txt
  4

  0
ENDTAB
  0
TABLE
  2
VIEW
  5
6
330
0
100
AcDbSymbolTable
 70
     0
  0
ENDTAB
  0
TABLE
  2
UCS
  5
7
330
0
100
AcDbSymbolTable
 70
     0
  0
ENDTAB
  0
TABLE
  2
APPID
  5
9
330
0
100
AcDbSymbolTable
 70
     1
  0
APPID
  5
12
330
9
100
AcDbSymbolTableRecord
100
AcDbRegAppTableRecord
  2
ACAD
 70
     0
  0
ENDTAB
  0
TABLE
  2
DIMSTYLE
  5
A
330
0
100
AcDbSymbolTable
 70
     1
  0
DIMSTYLE
105
27
330
A
100
AcDbSymbolTableRecord
100
AcDbDimStyleTableRecord
  2
STANDARD
 70
     0
  3

  4

  5

  6

  7

 40
1.0
 41
0.18
 42
0.0625
 43
0.38
 44
0.18
 45
0.0
 46
0.0
 47
0.0
 48
0.0
140
0.18
141
0.09
142
0.0
143
25.4
144
1.0
145
0.0
146
1.0
147
0.09
 71
     0
 72
     0
 73
     1
 74
     1
 75
     0
 76
     0
 77
     0
 78
     0
170
     0
171
     2
172
     0
173
     0
174
     0
175
     0
176
     0
177
     0
178
     0
270
     2
271
     4
272
     4
273
     2
274
     2
340
11
275
     0
280
     0
281
     0
282
     0
283
     1
284
     0
285
     0
286
     0
287
     3
288
     0
  0
ENDTAB
  0
TABLE
  2
BLOCK_RECORD
  5
1
330
0
100
AcDbSymbolTable
 70
     1
  0
BLOCK_RECORD
  5
1F
330
1
100
AcDbSymbolTableRecord
100
AcDbBlockTableRecord
  2
*MODEL_SPACE
  0
BLOCK_RECORD
  5
1B
330
1
100
AcDbSymbolTableRecord
100
AcDbBlockTableRecord
  2
*PAPER_SPACE
  0
ENDTAB
  0
ENDSEC
  0
SECTION
  2
BLOCKS
  0
BLOCK
  5
20
330
1F
100
AcDbEntity
  8
0
100
AcDbBlockBegin
  2
*MODEL_SPACE
 70
     0
 10
0.0
 20
0.0
 30
0.0
  3
*MODEL_SPACE
  1

  0
ENDBLK
  5
21
330
1F
100
AcDbEntity
  8
0
100
AcDbBlockEnd
  0
BLOCK
  5
1C
330
1B
100
AcDbEntity
 67
     1
  8
0
100
AcDbBlockBegin
  2
*PAPER_SPACE
 70
     0
 10
0.0
 20
0.0
 30
0.0
  3
*PAPER_SPACE
  1

  0
ENDBLK
  5
1D
330
1B
100
AcDbEntity
 67
     1
  8
0
100
AcDbBlockEnd
  0
ENDSEC
  0
SECTION
  2
ENTITIES
  0
LINE
  5
3D
330
1F
100
AcDbEntity
  8
0
100
AcDbLine
 10
15.52589812362102
 20
-342.4015110915811
 30
0.0
 11
-2.52580756337809
 21
-333.7912891554147
 31
0.0
  0
LINE
  5
3E
330
1F
100
AcDbEntity
  8
0
100
AcDbLine
 10
-63.34094065054131
 20
-304.783958655051
 30
0.0
 11
-81.35386065561852
 21
-296.1922365401773
 31
0.0
  0
LINE
  5
3F
330
1F
100
AcDbEntity
  8
0
100
AcDbLine
 10
-188.281312549875
 20
-245.1904582128537
 30
0.0
 11
-206.2942325549519
 21
-236.5987360979809
 31
0.0
  0
LINE
  5
40
330
1F
100
AcDbEntity
  8
0
100
AcDbLine
 10
-313.2216844492091
 20
-185.5969577706563
 30
0.0
 11
-331.2346044542859
 21
-177.0052356557855
 31
0.0
  0
LINE
  5
41
330
1F
100
AcDbEntity
  8
0
100
AcDbLine
 10
-353.6417622677051
 20
-223.9828189432556
 30
0.0
 11
-355.8644674042495
 21
-229.5559313480065
 31
0.0
  0
LINE
  5
42
330
1F
100
AcDbEntity
  8
0
100
AcDbLine
 10
179.7136124846553
 20
-427.3626048759322
 30
0.0
 11
190.3061750009948
 21
-432.4149980248005
 31
0.0
  0
LINE
  5
43
330
1F
100
AcDbEntity
  8
0
100
AcDbLine
 10
12.94283154277345
 20
-347.8170227976782
 30
0.0
 11
71.14363860592735
 21
-375.5773837500948
 31
0.0
  0
LINE
  5
44
330
1F
100
AcDbEntity
  8
0
100
AcDbLine
 10
190.3061750009948
 20
-432.4149980248005
 30
0.0
 11
184.2344088281287
 21
-445.1447205296785
 31
0.0
  0
LINE
  5
45
330
1F
100
AcDbEntity
  8
0
100
AcDbLine
 10
73.72670518677745
 20
-370.1618720439959
 30
0.0
 11
91.77841087377259
 21
-378.7720939801617
 31
0.0
  0
LINE
  5
46
330
1F
100
AcDbEntity
  8
0
100
AcDbLine
 10
-224.7885455782113
 20
-275.3728696864231
 30
0.0
 11
-206.2115042290472
 21
-282.7818868082387
 31
0.0
  0
LINE
  5
47
330
1F
100
AcDbEntity
  8
0
100
AcDbLine
 10
-224.7885455782113
 20
-275.3728696864231
 30
0.0
 11
-227.0112507147556
 21
-280.945982091174
 31
0.0
  0
LINE
  5
48
330
1F
100
AcDbEntity
  8
0
100
AcDbLine
 10
-337.2874260550797
 20
-236.9649484698209
 30
0.0
 11
-227.0112507147556
 21
-280.945982091174
 31
0.0
  0
LINE
  5
49
330
1F
100
AcDbEntity
  8
0
100
AcDbLine
 10
-353.6417622677051
 20
-223.9828189432556
 30
0.0
 11
-335.0647209185368
 21
-231.3918360650703
 31
0.0
  0
LINE
  5
4A
330
1F
100
AcDbEntity
  8
0
100
AcDbLine
 10
-373.9461733813607
 20
-222.3444671186896
 30
0.0
 11
-355.8644674042495
 21
-229.5559313480065
 31
0.0
  0
LINE
  5
4B
330
1F
100
AcDbEntity
  8
0
100
AcDbLine
 10
-65.92400723138996
 20
-310.1994703611496
 30
0.0
 11
-5.108874144225662
 21
-339.2068008615122
 31
0.0
  0
LINE
  5
4C
330
1F
100
AcDbEntity
  8
0
100
AcDbLine
 10
-79.58099267609879
 20
-339.7450499561588
 30
0.0
 11
184.2344088281287
 21
-445.1447205296785
 31
0.0
  0
LINE
  5
4D
330
1F
100
AcDbEntity
  8
0
100
AcDbLine
 10
-95.93532888872102
 20
-326.7629204295916
 30
0.0
 11
-77.35828753955553
 21
-334.1719375514074
 31
0.0
  0
LINE
  5
4E
330
1F
100
AcDbEntity
  8
0
100
AcDbLine
 10
-95.93532888872102
 20
-326.7629204295916
 30
0.0
 11
-98.15803402526645
 21
-332.3360328343422
 31
0.0
  0
LINE
  5
4F
330
1F
100
AcDbEntity
  8
0
100
AcDbLine
 10
-208.4342093655887
 20
-288.3549992129883
 30
0.0
 11
-98.15803402526645
 21
-332.3360328343422
 31
0.0
  0
LINE
  5
50
330
1F
100
AcDbEntity
  8
0
100
AcDbLine
 10
-333.8176710351382
 20
-182.420747361886
 30
0.0
 11
-354.154793392176
 21
-172.7204375920824
 31
0.0
  0
LINE
  5
51
330
1F
100
AcDbEntity
  8
0
100
AcDbLine
 10
-315.8047510300577
 20
-191.0124694767553
 30
0.0
 11
-208.8772991358027
 21
-242.0142478040796
 31
0.0
  0
LINE
  5
52
330
1F
100
AcDbEntity
  8
0
100
AcDbLine
 10
-190.8643791307244
 20
-250.6059699189524
 30
0.0
 11
-83.93692723646899
 21
-301.6077482462754
 31
0.0
  0
LINE
  5
53
330
1F
100
AcDbEntity
  8
0
100
AcDbLine
 10
170.6877596411585
 20
-423.0574939078468
 30
0.0
 11
89.19534429292538
 21
-384.1876056862611
 31
0.0
  0
LINE
  5
54
330
1F
100
AcDbEntity
  8
0
100
AcDbLine
 10
182.2966790655054
 20
-421.9470931698324
 30
0.0
 11
173.2708262220068
 21
-417.6419822017496
 31
0.0
  0
LINE
  5
55
330
1F
100
AcDbEntity
  8
0
100
AcDbLine
 10
131.4474400543532
 20
321.3024779593875
 30
0.0
 11
151.3910588010926
 21
319.8018756839758
 31
0.0
  0
LINE
  5
56
330
1F
100
AcDbEntity
  8
0
100
AcDbLine
 10
-145.2165519455926
 20
342.1192926604525
 30
0.0
 11
-26.82817469236084
 21
333.2114875853309
 31
0.0
  0
LINE
  5
57
330
1F
100
AcDbEntity
  8
0
100
AcDbLine
 10
-6.884555945620424
 20
331.7108853099205
 30
0.0
 11
-7.334736479848185
 21
325.7277976995814
 31
0.0
  0
LINE
  5
58
330
1F
100
AcDbEntity
  8
0
100
AcDbLine
 10
-7.334736479848185
 20
325.7277976995814
 30
0.0
 11
-27.2783552265886
 21
327.228399974992
 31
0.0
  0
LINE
  5
59
330
1F
100
AcDbEntity
  8
0
100
AcDbLine
 10
-26.82817469236084
 20
333.2114875853309
 30
0.0
 11
-27.2783552265886
 21
327.228399974992
 31
0.0
  0
LINE
  5
5A
330
1F
100
AcDbEntity
  8
0
100
AcDbLine
 10
-165.1601706923327
 20
343.6198949358636
 30
0.0
 11
-165.6103512265637
 21
337.6368073255237
 31
0.0
  0
LINE
  5
5B
330
1F
100
AcDbEntity
  8
0
100
AcDbLine
 10
151.3910588010926
 20
319.8018756839758
 30
0.0
 11
151.3910588010944
 21
484.7851622904075
 31
0.0
  0
LINE
  5
5C
330
1F
100
AcDbEntity
  8
0
100
AcDbLine
 10
131.4474400543532
 20
321.3024779593875
 30
0.0
 11
130.9972595201244
 21
315.3193903490488
 31
0.0
  0
LINE
  5
5D
330
1F
100
AcDbEntity
  8
0
100
AcDbLine
 10
130.9972595201244
 20
315.3193903490488
 30
0.0
 11
111.053640773384
 21
316.8199926244596
 31
0.0
  0
LINE
  5
5E
330
1F
100
AcDbEntity
  8
0
100
AcDbLine
 10
111.5038213076132
 20
322.8030802347997
 30
0.0
 11
111.053640773384
 21
316.8199926244596
 31
0.0
  0
LINE
  5
5F
330
1F
100
AcDbEntity
  8
0
100
AcDbLine
 10
-6.884555945620424
 20
331.7108853099205
 30
0.0
 11
111.5038213076132
 21
322.8030802347997
 31
0.0
  0
LINE
  5
60
330
1F
100
AcDbEntity
  8
0
100
AcDbLine
 10
-145.2165519455926
 20
342.1192926604525
 30
0.0
 11
-145.6667324798233
 21
336.1362050501131
 31
0.0
  0
LINE
  5
61
330
1F
100
AcDbEntity
  8
0
100
AcDbLine
 10
-145.6667324798233
 20
336.1362050501131
 30
0.0
 11
-165.6103512265637
 21
337.6368073255237
 31
0.0
  0
LINE
  5
62
330
1F
100
AcDbEntity
  8
0
100
AcDbLine
 10
-185.1037894390749
 20
345.1204972112735
 30
0.0
 11
-165.1601706923327
 21
343.6198949358636
 31
0.0
  0
LINE
  5
63
330
1F
100
AcDbEntity
  8
0
100
AcDbLine
 10
-190.8876271808898
 20
402.2935650785042
 30
0.0
 11
-185.1037894390749
 21
345.1204972112735
 31
0.0
  0
LINE
  5
64
330
1F
100
AcDbEntity
  8
0
100
AcDbLine
 10
-160.8876371688147
 20
399.2928540943965
 30
0.0
 11
-170.8876338389665
 21
399.2927951676801
 31
0.0
  0
LINE
  5
65
330
1F
100
AcDbEntity
  8
0
100
AcDbLine
 10
-416.4227447681492
 20
30.58202344460134
 30
0.0
 11
-416.4227447681495
 21
36.58202344460143
 31
0.0
  0
LINE
  5
66
330
1F
100
AcDbEntity
  8
0
100
AcDbLine
 10
-277.709088454098
 20
30.5820234446004
 30
0.0
 11
-347.7090880114742
 21
30.58202344460143
 31
0.0
  0
LINE
  5
67
330
1F
100
AcDbEntity
  8
0
100
AcDbLine
 10
-137.7090886463409
 20
30.58202344460067
 30
0.0
 11
-207.7090884540959
 21
30.58202344460211
 31
0.0
  0
LINE
  5
68
330
1F
100
AcDbEntity
  8
0
100
AcDbLine
 10
445.9491890594581
 20
30.58202344460085
 30
0.0
 11
445.9491890594596
 21
36.58202344460129
 31
0.0
  0
LINE
  5
69
330
1F
100
AcDbEntity
  8
0
100
AcDbLine
 10
285.6176066443954
 20
-48.91797655539872
 30
0.0
 11
305.6176066443962
 21
-48.91797655539853
 31
0.0
  0
LINE
  5
6A
330
1F
100
AcDbEntity
  8
0
100
AcDbLine
 10
201.1352712104855
 20
-54.91797655539852
 30
0.0
 11
201.1352712104873
 21
-48.9179765553988
 31
0.0
  0
LINE
  5
6B
330
1F
100
AcDbEntity
  8
0
100
AcDbLine
 10
285.6176066443954
 20
-54.91797655539943
 30
0.0
 11
285.6176066443954
 21
-48.91797655539872
 31
0.0
  0
LINE
  5
6C
330
1F
100
AcDbEntity
  8
0
100
AcDbLine
 10
305.6176066443961
 20
-54.91797655539861
 30
0.0
 11
305.6176066443962
 21
-48.91797655539853
 31
0.0
  0
LINE
  5
6D
330
1F
100
AcDbEntity
  8
0
100
AcDbLine
 10
-347.7090880114731
 20
36.58202344460147
 30
0.0
 11
-347.7090880114742
 21
30.58202344460143
 31
0.0
  0
LINE
  5
6E
330
1F
100
AcDbEntity
  8
0
100
AcDbLine
 10
-416.4227447681492
 20
30.58202344460134
 30
0.0
 11
-505.0351455099865
 21
30.58202344460058
 31
0.0
  0
LINE
  5
6F
330
1F
100
AcDbEntity
  8
0
100
AcDbLine
 10
378.4093519089484
 20
-60.41575668886166
 30
0.0
 11
378.6583898020726
 21
-54.9179765553996
 31
0.0
  0
LINE
  5
70
330
1F
100
AcDbEntity
  8
0
100
AcDbLine
 10
285.6176066443954
 20
-54.91797655539943
 30
0.0
 11
305.6176066443961
 21
-54.91797655539861
 31
0.0
  0
LINE
  5
71
330
1F
100
AcDbEntity
  8
0
100
AcDbLine
 10
316.6511464540201
 20
-60.41575668886247
 30
0.0
 11
316.6511464540209
 21
-301.9702143399712
 31
0.0
  0
LINE
  5
72
330
1F
100
AcDbEntity
  8
0
100
AcDbLine
 10
316.6511464540201
 20
-60.41575668886247
 30
0.0
 11
378.4093519089484
 21
-60.41575668886166
 31
0.0
  0
LINE
  5
73
330
1F
100
AcDbEntity
  8
0
100
AcDbLine
 10
367.4674423113219
 20
-301.9702143399701
 30
0.0
 11
378.4093519089484
 21
-60.41575668886166
 31
0.0
  0
LINE
  5
74
330
1F
100
AcDbEntity
  8
0
100
AcDbLine
 10
316.6511464540209
 20
-301.9702143399712
 30
0.0
 11
367.4674423113219
 21
-301.9702143399701
 31
0.0
  0
LINE
  5
75
330
1F
100
AcDbEntity
  8
0
100
AcDbLine
 10
-3.993422113482019
 20
-36.98574424221636
 30
0.0
 11
-4.44457213802366
 21
-42.9687588381565
 31
0.0
  0
LINE
  5
76
330
1F
100
AcDbEntity
  8
0
100
AcDbLine
 10
134.0397147838723
 20
-47.39415159274256
 30
0.0
 11
114.1391829126736
 21
-45.8935492963423
 31
0.0
  0
LINE
  5
77
330
1F
100
AcDbEntity
  8
0
100
AcDbLine
 10
317.7900151914028
 20
30.58202344460211
 30
0.0
 11
411.4392667000228
 21
30.5820234446017
 31
0.0
  0
LINE
  5
78
330
1F
100
AcDbEntity
  8
0
100
AcDbLine
 10
411.4392667000228
 20
30.5820234446017
 30
0.0
 11
411.4392667000225
 21
36.58202344460205
 31
0.0
  0
LINE
  5
79
330
1F
100
AcDbEntity
  8
0
100
AcDbLine
 10
405.9053797349297
 20
-54.91797655539825
 30
0.0
 11
413.8500590752434
 21
-54.9179765553978
 31
0.0
  0
LINE
  5
7A
330
1F
100
AcDbEntity
  8
0
100
AcDbLine
 10
405.9053797349287
 20
-48.91797655539899
 30
0.0
 11
405.9053797349297
 21
-54.91797655539825
 31
0.0
  0
LINE
  5
7B
330
1F
100
AcDbEntity
  8
0
100
AcDbLine
 10
295.6761262608606
 20
-332.4078335504875
 30
0.0
 11
340.1761262608574
 21
-332.4078335504904
 31
0.0
  0
LINE
  5
7C
330
1F
100
AcDbEntity
  8
0
100
AcDbLine
 10
-469.4116505346097
 20
19.2728255232046
 30
0.0
 11
-505.0351455099865
 21
30.58202344460058
 31
0.0
  0
LINE
  5
7D
330
1F
100
AcDbEntity
  8
0
100
AcDbLine
 10
-396.9684852871455
 20
3.88204516141953
 30
0.0
 11
-410.45877553651
 21
6.084425040339719
 31
0.0
  0
LINE
  5
7E
330
1F
100
AcDbEntity
  8
0
100
AcDbLine
 10
114.1391829126736
 20
-45.8935492963423
 30
0.0
 11
113.688032888136
 21
-51.87656389228137
 31
0.0
  0
LINE
  5
7F
330
1F
100
AcDbEntity
  8
0
100
AcDbLine
 10
232.5491201435049
 20
30.58202344460193
 30
0.0
 11
232.5491201435027
 21
36.58202344460133
 31
0.0
  0
LINE
  5
80
330
1F
100
AcDbEntity
  8
0
100
AcDbLine
 10
-277.7090884540955
 20
36.58202344460129
 30
0.0
 11
-277.709088454098
 21
30.5820234446004
 31
0.0
  0
LINE
  5
81
330
1F
100
AcDbEntity
  8
0
100
AcDbLine
 10
32.05135659799009
 20
30.58153140266829
 30
0.0
 11
52.05135659798987
 21
30.58153140266842
 31
0.0
  0
LINE
  5
82
330
1F
100
AcDbEntity
  8
0
100
AcDbLine
 10
-137.7090886463377
 20
36.58202344460101
 30
0.0
 11
-137.7090886463409
 21
30.58202344460067
 31
0.0
  0
LINE
  5
83
330
1F
100
AcDbEntity
  8
0
100
AcDbLine
 10
201.1352712104855
 20
-54.91797655539852
 30
0.0
 11
221.1352712104882
 21
-54.91797655539897
 31
0.0
  0
LINE
  5
84
330
1F
100
AcDbEntity
  8
0
100
AcDbLine
 10
221.1352712104882
 20
-54.91797655539897
 30
0.0
 11
221.1352712104824
 21
-48.91797655539989
 31
0.0
  0
LINE
  5
85
330
1F
100
AcDbEntity
  8
0
100
AcDbLine
 10
221.1352712104824
 20
-48.91797655539989
 30
0.0
 11
201.1352712104873
 21
-48.9179765553988
 31
0.0
  0
LINE
  5
86
330
1F
100
AcDbEntity
  8
0
100
AcDbLine
 10
-185.0429516883276
 20
-29.35071360777118
 30
0.0
 11
-162.3782409063984
 21
-31.05974918890888
 31
0.0
  0
LINE
  5
87
330
1F
100
AcDbEntity
  8
0
100
AcDbLine
 10
-185.0429516883276
 20
-29.35071360777118
 30
0.0
 11
-201.3587212174734
 21
-9.377657183188065
 31
0.0
  0
LINE
  5
88
330
1F
100
AcDbEntity
  8
0
100
AcDbLine
 10
-107.1381373244218
 20
-35.22513666883543
 30
0.0
 11
269.3908694871279
 21
-326.4078335504884
 31
0.0
  0
LINE
  5
89
330
1F
100
AcDbEntity
  8
0
100
AcDbLine
 10
-207.7090884540962
 20
36.5820234446012
 30
0.0
 11
-207.7090884540959
 21
30.58202344460211
 31
0.0
  0
LINE
  5
8A
330
1F
100
AcDbEntity
  8
0
100
AcDbLine
 10
-453.3876035867617
 20
15.07820094762364
 30
0.0
 11
-469.4116505346097
 21
19.2728255232046
 31
0.0
  0
LINE
  5
8B
330
1F
100
AcDbEntity
  8
0
100
AcDbLine
 10
32.05135659799081
 20
36.5825154865334
 30
0.0
 11
32.05135659799009
 21
30.58153140266829
 31
0.0
  0
LINE
  5
8C
330
1F
100
AcDbEntity
  8
0
100
AcDbLine
 10
-142.4777090352156
 20
-32.5603514855184
 30
0.0
 11
-107.1381373244218
 21
-35.22513666883543
 31
0.0
  0
LINE
  5
8D
330
1F
100
AcDbEntity
  8
0
100
AcDbLine
 10
-23.89395398468217
 20
-35.4851419458157
 30
0.0
 11
-3.993422113482019
 21
-36.98574424221636
 31
0.0
  0
LINE
  5
8E
330
1F
100
AcDbEntity
  8
0
100
AcDbLine
 10
485.8998468223894
 20
30.58202344460116
 30
0.0
 11
485.8998468223904
 21
36.58202344460156
 31
0.0
  0
LINE
  5
8F
330
1F
100
AcDbEntity
  8
0
100
AcDbLine
 10
-24.34510400922128
 20
-41.46815654175544
 30
0.0
 11
-23.89395398468217
 21
-35.4851419458157
 31
0.0
  0
LINE
  5
90
330
1F
100
AcDbEntity
  8
0
100
AcDbLine
 10
-4.44457213802366
 20
-42.9687588381565
 30
0.0
 11
-24.34510400922128
 21
-41.46815654175544
 31
0.0
  0
LINE
  5
91
330
1F
100
AcDbEntity
  8
0
100
AcDbLine
 10
366.3604694871263
 20
-326.4078335504873
 30
0.0
 11
367.4674423113219
 21
-301.9702143399701
 31
0.0
  0
LINE
  5
92
330
1F
100
AcDbEntity
  8
0
100
AcDbLine
 10
340.1761262608584
 20
-326.4078335504892
 30
0.0
 11
366.3604694871263
 21
-326.4078335504873
 31
0.0
  0
LINE
  5
93
330
1F
100
AcDbEntity
  8
0
100
AcDbLine
 10
269.3908694871279
 20
-326.4078335504884
 30
0.0
 11
295.67612626086
 21
-326.407833550488
 31
0.0
  0
LINE
  5
94
330
1F
100
AcDbEntity
  8
0
100
AcDbLine
 10
-142.0265590108335
 20
-26.57733689168719
 30
0.0
 11
-142.4777090352156
 21
-32.5603514855184
 31
0.0
  0
LINE
  5
95
330
1F
100
AcDbEntity
  8
0
100
AcDbLine
 10
-161.9270908820329
 20
-25.07673459528711
 30
0.0
 11
-142.0265590108335
 21
-26.57733689168719
 31
0.0
  0
LINE
  5
96
330
1F
100
AcDbEntity
  8
0
100
AcDbLine
 10
-161.9270908820329
 20
-25.07673459528711
 30
0.0
 11
-162.3782409063984
 21
-31.05974918890888
 31
0.0
  0
LINE
  5
97
330
1F
100
AcDbEntity
  8
0
100
AcDbLine
 10
-201.3587212174734
 20
-9.377657183188065
 30
0.0
 11
-249.827730337236
 21
-9.377657183187795
 31
0.0
  0
LINE
  5
98
330
1F
100
AcDbEntity
  8
0
100
AcDbLine
 10
-225.8321806856969
 20
-91.07337437761744
 30
0.0
 11
-249.827730337236
 21
-9.377657183187795
 31
0.0
  0
LINE
  5
99
330
1F
100
AcDbEntity
  8
0
100
AcDbLine
 10
-258.1698106856957
 20
-91.07337437761817
 30
0.0
 11
-225.8321806856969
 21
-91.07337437761744
 31
0.0
  0
LINE
  5
9A
330
1F
100
AcDbEntity
  8
0
100
AcDbLine
 10
-352.5922829018332
 20
3.004236393491476
 30
0.0
 11
-258.1698106856957
 21
-91.07337437761817
 31
0.0
  0
LINE
  5
9B
330
1F
100
AcDbEntity
  8
0
100
AcDbLine
 10
-381.5385369990132
 20
3.004236393493551
 30
0.0
 11
-396.9684852871455
 21
3.88204516141953
 31
0.0
  0
LINE
  5
9C
330
1F
100
AcDbEntity
  8
0
100
AcDbLine
 10
-410.45877553651
 20
6.084425040339719
 30
0.0
 11
-453.3876035867617
 21
15.07820094762364
 31
0.0
  0
LINE
  5
9D
330
1F
100
AcDbEntity
  8
0
100
AcDbLine
 10
52.05135659798987
 20
30.58153140266842
 30
0.0
 11
52.05135659799024
 21
36.58251548653249
 31
0.0
  0
LINE
  5
9E
330
1F
100
AcDbEntity
  8
0
100
AcDbLine
 10
72.05135659652598
 20
36.58235427219731
 30
0.0
 11
72.05135659652743
 21
30.58169261700591
 31
0.0
  0
LINE
  5
9F
330
1F
100
AcDbEntity
  8
0
100
AcDbLine
 10
72.05135659652743
 20
30.58169261700591
 30
0.0
 11
154.1352712104875
 21
30.5816926170055
 31
0.0
  0
LINE
  5
A0
330
1F
100
AcDbEntity
  8
0
100
AcDbLine
 10
154.1352712104853
 20
-48.91797655539889
 30
0.0
 11
154.1352712104875
 21
30.5816926170055
 31
0.0
  0
LINE
  5
A1
330
1F
100
AcDbEntity
  8
0
100
AcDbLine
 10
186.1352712104864
 20
-48.91797655539826
 30
0.0
 11
154.1352712104853
 21
-48.91797655539889
 31
0.0
  0
LINE
  5
A2
330
1F
100
AcDbEntity
  8
0
100
AcDbLine
 10
186.1352712104871
 20
116.0820234446012
 30
0.0
 11
186.1352712104864
 21
-48.91797655539826
 31
0.0
  0
LINE
  5
A3
330
1F
100
AcDbEntity
  8
0
100
AcDbLine
 10
212.598462380573
 20
36.58202344460039
 30
0.0
 11
212.5984623805737
 21
30.58202344460107
 31
0.0
  0
LINE
  5
A4
330
1F
100
AcDbEntity
  8
0
100
AcDbLine
 10
212.5984623805737
 20
30.58202344460107
 30
0.0
 11
232.5491201435049
 21
30.58202344460193
 31
0.0
  0
LINE
  5
A5
330
1F
100
AcDbEntity
  8
0
100
AcDbLine
 10
317.7900151914025
 20
36.58202344460143
 30
0.0
 11
317.7900151914028
 21
30.58202344460211
 31
0.0
  0
LINE
  5
A6
330
1F
100
AcDbEntity
  8
0
100
AcDbLine
 10
445.9491890594581
 20
30.58202344460085
 30
0.0
 11
485.8998468223894
 21
30.58202344460116
 31
0.0
  0
LINE
  5
A7
330
1F
100
AcDbEntity
  8
0
100
AcDbLine
 10
505.0351455099859
 20
-28.02344666376397
 30
0.0
 11
505.0351455099865
 21
95.18749355296701
 31
0.0
  0
LINE
  5
A8
330
1F
100
AcDbEntity
  8
0
100
AcDbLine
 10
427.1564158949818
 20
-33.85874414325001
 30
0.0
 11
505.0351455099859
 21
-28.02344666376397
 31
0.0
  0
LINE
  5
A9
330
1F
100
AcDbEntity
  8
0
100
AcDbLine
 10
427.1564158949818
 20
-33.85874414325001
 30
0.0
 11
413.8500590752434
 21
-54.9179765553978
 31
0.0
  0
LINE
  5
AA
330
1F
100
AcDbEntity
  8
0
100
AcDbLine
 10
395.9053797349292
 20
-48.91797655539853
 30
0.0
 11
405.9053797349287
 21
-48.91797655539899
 31
0.0
  0
LINE
  5
AB
330
1F
100
AcDbEntity
  8
0
100
AcDbLine
 10
395.9053797349291
 20
-54.91797655539834
 30
0.0
 11
395.9053797349292
 21
-48.91797655539853
 31
0.0
  0
LINE
  5
AC
330
1F
100
AcDbEntity
  8
0
100
AcDbLine
 10
378.6583898020726
 20
-54.9179765553996
 30
0.0
 11
395.9053797349291
 21
-54.91797655539834
 31
0.0
  0
LINE
  5
AD
330
1F
100
AcDbEntity
  8
0
100
AcDbLine
 10
133.5885647593321
 20
-53.37716618868216
 30
0.0
 11
134.0397147838723
 21
-47.39415159274256
 31
0.0
  0
LINE
  5
AE
330
1F
100
AcDbEntity
  8
0
100
AcDbLine
 10
113.688032888136
 20
-51.87656389228137
 30
0.0
 11
133.5885647593321
 21
-53.37716618868216
 31
0.0
  0
LINE
  5
AF
330
1F
100
AcDbEntity
  8
0
100
AcDbLine
 10
-68.15212831445395
 20
286.726666536076
 30
0.0
 11
-55.72933176463854
 21
289.5321526872735
 31
0.0
  0
LINE
  5
B0
330
1F
100
AcDbEntity
  8
0
100
AcDbLine
 10
93.10168823536092
 20
289.5321526872735
 30
0.0
 11
93.1016882353602
 21
270.9174526872728
 31
0.0
  0
LINE
  5
B1
330
1F
100
AcDbEntity
  8
0
100
AcDbLine
 10
66.91734500909268
 20
283.2248026872738
 30
0.0
 11
22.4173450090909
 21
283.2248026872732
 31
0.0
  0
LINE
  5
B2
330
1F
100
AcDbEntity
  8
0
100
AcDbLine
 10
-74.690351764637
 20
280.2248026872736
 30
0.0
 11
-68.15212831445322
 21
273.7229388384712
 31
0.0
  0
LINE
  5
B3
330
1F
100
AcDbEntity
  8
0
100
AcDbLine
 10
-74.690351764637
 20
280.2248026872736
 30
0.0
 11
-68.15212831445395
 21
286.726666536076
 31
0.0
  0
LINE
  5
B4
330
1F
100
AcDbEntity
  8
0
100
AcDbLine
 10
22.41734500909234
 20
277.224802687275
 30
0.0
 11
66.9173450090916
 21
277.2248026872749
 31
0.0
  0
LINE
  5
B5
330
1F
100
AcDbEntity
  8
0
100
AcDbLine
 10
93.1016882353602
 20
270.9174526872728
 30
0.0
 11
-55.72933176463999
 21
270.9174526872724
 31
0.0
  0
LINE
  5
B6
330
1F
100
AcDbEntity
  8
0
100
AcDbLine
 10
-68.15212831445322
 20
273.7229388384712
 30
0.0
 11
-55.72933176463999
 21
270.9174526872724
 31
0.0
  0
LINE
  5
B7
330
1F
100
AcDbEntity
  8
0
100
AcDbLine
 10
-100.8090195085137
 20
-108.8579347194976
 30
0.0
 11
-115.3743391459511
 21
-104.1201818555927
 31
0.0
  0
LINE
  5
B8
330
1F
100
AcDbEntity
  8
0
100
AcDbLine
 10
-100.9569545976531
 20
-281.0431258213126
 30
0.0
 11
-82.4057758912284
 21
-288.516663666658
 31
0.0
  0
LINE
  5
B9
330
1F
100
AcDbEntity
  8
0
100
AcDbLine
 10
-141.493386184542
 20
-101.4435974703786
 30
0.0
 11
-242.8168590567373
 21
-102.9933855811346
 31
0.0
  0
LINE
  5
BA
330
1F
100
AcDbEntity
  8
0
100
AcDbLine
 10
-242.8168590567373
 20
-102.9933855811346
 30
0.0
 11
-249.4454181421585
 21
-103.0947723750427
 31
0.0
  0
LINE
  5
BB
330
1F
100
AcDbEntity
  8
0
100
AcDbLine
 10
-274.2633263249545
 20
-98.04113682671259
 30
0.0
 11
-249.4454181421585
 21
-103.0947723750427
 31
0.0
  0
LINE
  5
BC
330
1F
100
AcDbEntity
  8
0
100
AcDbLine
 10
-274.2633263249545
 20
-98.04113682671259
 30
0.0
 11
-307.4176637335819
 21
-92.87397021273546
 31
0.0
  0
LINE
  5
BD
330
1F
100
AcDbEntity
  8
0
100
AcDbLine
 10
-249.7356690620802
 20
-151.9709829536206
 30
0.0
 11
-252.3385453397497
 21
-157.3770013670225
 31
0.0
  0
LINE
  5
BE
330
1F
100
AcDbEntity
  8
0
100
AcDbLine
 10
-314.2497610119654
 20
-127.5681436210799
 30
0.0
 11
-252.3385453397497
 21
-157.3770013670225
 31
0.0
  0
LINE
  5
BF
330
1F
100
AcDbEntity
  8
0
100
AcDbLine
 10
-314.2497610119654
 20
-127.5681436210799
 30
0.0
 11
-311.6468847483512
 21
-122.1621252008848
 31
0.0
  0
LINE
  5
C0
330
1F
100
AcDbEntity
  8
0
100
AcDbLine
 10
-311.6468847483512
 20
-122.1621252008848
 30
0.0
 11
-307.4176637335819
 21
-92.87397021273546
 31
0.0
  0
LINE
  5
C1
330
1F
100
AcDbEntity
  8
0
100
AcDbLine
 10
-396.5672359769302
 20
-84.60450863938081
 30
0.0
 11
-391.5079645087392
 21
-90.37005644743559
 31
0.0
  0
LINE
  5
C2
330
1F
100
AcDbEntity
  8
0
100
AcDbLine
 10
-372.2555970849585
 20
-105.306926842458
 30
0.0
 11
-391.5079645087392
 21
-90.37005644743559
 31
0.0
  0
LINE
  5
C3
330
1F
100
AcDbEntity
  8
0
100
AcDbLine
 10
-185.2607323162236
 20
-154.7907380545988
 30
0.0
 11
-186.6654546000533
 21
-182.3378725447251
 31
0.0
  0
LINE
  5
C4
330
1F
100
AcDbEntity
  8
0
100
AcDbLine
 10
11.45045004740961
 20
-185.4166379793017
 30
0.0
 11
58.8060386179532
 21
-217.4991601855814
 31
0.0
  0
LINE
  5
C5
330
1F
100
AcDbEntity
  8
0
100
AcDbLine
 10
11.45045004740961
 20
-185.4166379793017
 30
0.0
 11
-39.14352216809063
 21
-146.2216130981584
 31
0.0
  0
LINE
  5
C6
330
1F
100
AcDbEntity
  8
0
100
AcDbLine
 10
-128.636012080225
 20
-224.1750614610814
 30
0.0
 11
-288.4684527827613
 21
-156.04926159774
 31
0.0
  0
LINE
  5
C7
330
1F
100
AcDbEntity
  8
0
100
AcDbLine
 10
-112.4746053062884
 20
-282.8717105152996
 30
0.0
 11
-110.232543950868
 21
-277.3063568986329
 31
0.0
  0
LINE
  5
C8
330
1F
100
AcDbEntity
  8
0
100
AcDbLine
 10
-317.4156350209777
 20
-141.1074810996002
 30
0.0
 11
-349.0036238632898
 21
-122.0574692251037
 31
0.0
  0
LINE
  5
C9
330
1F
100
AcDbEntity
  8
0
100
AcDbLine
 10
232.0415839713856
 20
-308.1710517451842
 30
0.0
 11
202.4276390783661
 21
-369.6774450752603
 31
0.0
  0
LINE
  5
CA
330
1F
100
AcDbEntity
  8
0
100
AcDbLine
 10
105.6412179428731
 20
-370.7419493644327
 30
0.0
 11
124.1923982788497
 21
-378.2154832098973
 31
0.0
  0
LINE
  5
CB
330
1F
100
AcDbEntity
  8
0
100
AcDbLine
 10
107.8832780965552
 20
-365.1765952636692
 30
0.0
 11
105.6412179428731
 21
-370.7419493644327
 31
0.0
  0
LINE
  5
CC
330
1F
100
AcDbEntity
  8
0
100
AcDbLine
 10
107.8832780965552
 20
-365.1765952636692
 30
0.0
 11
75.3980235166988
 21
-352.0895762609054
 31
0.0
  0
LINE
  5
CD
330
1F
100
AcDbEntity
  8
0
100
AcDbLine
 10
110.4497186495523
 20
-325.3921452965101
 30
0.0
 11
128.4697800424852
 21
-334.0683995224866
 31
0.0
  0
LINE
  5
CE
330
1F
100
AcDbEntity
  8
0
100
AcDbLine
 10
128.4697800424852
 20
-334.0683995224866
 30
0.0
 11
125.8669037748871
 21
-339.4744179394349
 31
0.0
  0
LINE
  5
CF
330
1F
100
AcDbEntity
  8
0
100
AcDbLine
 10
125.8669037748871
 20
-339.4744179394349
 30
0.0
 11
107.8468423819842
 21
-330.7981637134853
 31
0.0
  0
LINE
  5
D0
330
1F
100
AcDbEntity
  8
0
100
AcDbLine
 10
-349.0036238632898
 20
-122.0574692251037
 30
0.0
 11
-372.2555970849585
 21
-105.306926842458
 31
0.0
  0
LINE
  5
D1
330
1F
100
AcDbEntity
  8
0
100
AcDbLine
 10
-100.9569545976531
 20
-281.0431258213126
 30
0.0
 11
-103.1990159398535
 21
-286.6084794070313
 31
0.0
  0
LINE
  5
D2
330
1F
100
AcDbEntity
  8
0
100
AcDbLine
 10
-126.1981160741776
 20
-218.1107807148858
 30
0.0
 11
-123.5952397135215
 21
-212.7047623395814
 31
0.0
  0
LINE
  5
D3
330
1F
100
AcDbEntity
  8
0
100
AcDbLine
 10
-128.7837226572928
 20
-269.8328190532831
 30
0.0
 11
-128.636012080225
 21
-224.1750614610814
 31
0.0
  0
LINE
  5
D4
330
1F
100
AcDbEntity
  8
0
100
AcDbLine
 10
-288.4684527827613
 20
-156.04926159774
 30
0.0
 11
-317.4156350209777
 21
-141.1074810996002
 31
0.0
  0
LINE
  5
D5
330
1F
100
AcDbEntity
  8
0
100
AcDbLine
 10
-370.1097811872132
 20
-85.84596617758118
 30
0.0
 11
-307.4176637335819
 21
-92.87397021273546
 31
0.0
  0
LINE
  5
D6
330
1F
100
AcDbEntity
  8
0
100
AcDbLine
 10
-186.6654546000533
 20
-182.3378725447251
 30
0.0
 11
-189.2683308655037
 21
-187.7438909647855
 31
0.0
  0
LINE
  5
D7
330
1F
100
AcDbEntity
  8
0
100
AcDbLine
 10
-88.88475905237145
 20
-114.3197468317773
 30
0.0
 11
-100.8090195085137
 21
-108.8579347194976
 31
0.0
  0
LINE
  5
D8
330
1F
100
AcDbEntity
  8
0
100
AcDbLine
 10
-76.19008879910136
 20
-121.2087783759258
 30
0.0
 11
-88.88475905237145
 21
-114.3197468317773
 31
0.0
  0
LINE
  5
D9
330
1F
100
AcDbEntity
  8
0
100
AcDbLine
 10
202.4276390783661
 20
-369.6774450752603
 30
0.0
 11
188.8832759365634
 21
-397.8082776890643
 31
0.0
  0
LINE
  5
DA
330
1F
100
AcDbEntity
  8
0
100
AcDbLine
 10
128.4697800424852
 20
-334.0683995224866
 30
0.0
 11
202.4276390783661
 21
-369.6774450752603
 31
0.0
  0
LINE
  5
DB
330
1F
100
AcDbEntity
  8
0
100
AcDbLine
 10
112.495275241925
 20
-309.6179353883294
 30
0.0
 11
110.4497186495523
 21
-325.3921452965101
 31
0.0
  0
LINE
  5
DC
330
1F
100
AcDbEntity
  8
0
100
AcDbLine
 10
112.495275241925
 20
-309.6179353883294
 30
0.0
 11
103.4852445454742
 21
-305.2798082753505
 31
0.0
  0
LINE
  5
DD
330
1F
100
AcDbEntity
  8
0
100
AcDbLine
 10
103.4852445454742
 20
-305.2798082753505
 30
0.0
 11
92.42965725665444
 21
-316.7158910705558
 31
0.0
  0
LINE
  5
DE
330
1F
100
AcDbEntity
  8
0
100
AcDbLine
 10
92.42965725665444
 20
-316.7158910705558
 30
0.0
 11
75.3980235166988
 21
-352.0895762609054
 31
0.0
  0
LINE
  5
DF
330
1F
100
AcDbEntity
  8
0
100
AcDbLine
 10
126.4344584325311
 20
-372.6501291091326
 30
0.0
 11
124.1923982788497
 21
-378.2154832098973
 31
0.0
  0
LINE
  5
E0
330
1F
100
AcDbEntity
  8
0
100
AcDbLine
 10
126.4344584325311
 20
-372.6501291091326
 30
0.0
 11
188.8832759365634
 21
-397.8082776890643
 31
0.0
  0
LINE
  5
E1
330
1F
100
AcDbEntity
  8
0
100
AcDbLine
 10
-189.2683308655037
 20
-187.7438909647855
 30
0.0
 11
-126.1981160741776
 21
-218.1107807148858
 31
0.0
  0
LINE
  5
E2
330
1F
100
AcDbEntity
  8
0
100
AcDbLine
 10
-229.077163280916
 20
-133.6941121156954
 30
0.0
 11
-185.2607323162236
 21
-154.7907380545988
 31
0.0
  0
LINE
  5
E3
330
1F
100
AcDbEntity
  8
0
100
AcDbLine
 10
-229.077163280916
 20
-133.6941121156954
 30
0.0
 11
-249.7356690620802
 21
-151.9709829536206
 31
0.0
  0
LINE
  5
E4
330
1F
100
AcDbEntity
  8
0
100
AcDbLine
 10
-396.5672359769302
 20
-84.60450863938081
 30
0.0
 11
-370.1097811872132
 21
-85.84596617758118
 31
0.0
  0
LINE
  5
E5
330
1F
100
AcDbEntity
  8
0
100
AcDbLine
 10
-128.7837226572928
 20
-269.8328190532831
 30
0.0
 11
-110.232543950868
 21
-277.3063568986329
 31
0.0
  0
LINE
  5
E6
330
1F
100
AcDbEntity
  8
0
100
AcDbLine
 10
-103.1990159398535
 20
-286.6084794070313
 30
0.0
 11
-112.4746053062884
 21
-282.8717105152996
 31
0.0
  0
LINE
  5
E7
330
1F
100
AcDbEntity
  8
0
100
AcDbLine
 10
-82.4057758912284
 20
-288.516663666658
 30
0.0
 11
-60.52502501281659
 21
-243.0716520476823
 31
0.0
  0
LINE
  5
E8
330
1F
100
AcDbEntity
  8
0
100
AcDbLine
 10
-58.55295717693659
 20
-204.3986518331309
 30
0.0
 11
-60.52502501281659
 21
-243.0716520476823
 31
0.0
  0
LINE
  5
E9
330
1F
100
AcDbEntity
  8
0
100
AcDbLine
 10
-58.55295717693659
 20
-204.3986518331309
 30
0.0
 11
-94.593079962741
 21
-187.0461433812265
 31
0.0
  0
LINE
  5
EA
330
1F
100
AcDbEntity
  8
0
100
AcDbLine
 10
-94.593079962741
 20
-187.0461433812265
 30
0.0
 11
-123.5952397135215
 21
-212.7047623395814
 31
0.0
  0
LINE
  5
EB
330
1F
100
AcDbEntity
  8
0
100
AcDbLine
 10
-143.3148646699667
 20
-138.797564538872
 30
0.0
 11
-4.539898224459496
 21
-194.4872356718957
 31
0.0
  0
LINE
  5
EC
330
1F
100
AcDbEntity
  8
0
100
AcDbLine
 10
-4.539898224459496
 20
-194.4872356718957
 30
0.0
 11
11.45045004740961
 21
-185.4166379793017
 31
0.0
  0
LINE
  5
ED
330
1F
100
AcDbEntity
  8
0
100
AcDbLine
 10
-115.3743391459511
 20
-104.1201818555927
 30
0.0
 11
-135.013186989263
 21
-102.1076645764071
 31
0.0
  0
LINE
  5
EE
330
1F
100
AcDbEntity
  8
0
100
AcDbLine
 10
-135.013186989263
 20
-102.1076645764071
 30
0.0
 11
-143.3148646699667
 21
-138.797564538872
 31
0.0
  0
LINE
  5
EF
330
1F
100
AcDbEntity
  8
0
100
AcDbLine
 10
-149.4119685803175
 20
-136.4403784970571
 30
0.0
 11
-242.8168590567373
 21
-102.9933855811346
 31
0.0
  0
LINE
  5
F0
330
1F
100
AcDbEntity
  8
0
100
AcDbLine
 10
-141.493386184542
 20
-101.4435974703786
 30
0.0
 11
-149.4119685803175
 21
-136.4403784970571
 31
0.0
  0
LINE
  5
F1
330
1F
100
AcDbEntity
  8
0
100
AcDbLine
 10
136.0230814638613
 20
-259.9154105394501
 30
0.0
 11
232.0415839713856
 21
-308.1710517451842
 31
0.0
  0
LINE
  5
F2
330
1F
100
AcDbEntity
  8
0
100
AcDbLine
 10
58.8060386179532
 20
-217.4991601855814
 30
0.0
 11
136.0230814638613
 21
-259.9154105394501
 31
0.0
  0
LINE
  5
F3
330
1F
100
AcDbEntity
  8
0
100
AcDbLine
 10
-135.013186989263
 20
-102.1076645764071
 30
0.0
 11
-141.493386184542
 21
-101.4435974703786
 31
0.0
  0
LINE
  5
F4
330
1F
100
AcDbEntity
  8
0
100
AcDbLine
 10
-249.7356690620802
 20
-151.9709829536206
 30
0.0
 11
-311.6468847483512
 21
-122.1621252008848
 31
0.0
  0
LINE
  5
F5
330
1F
100
AcDbEntity
  8
0
100
AcDbLine
 10
-123.5952397135215
 20
-212.7047623395814
 30
0.0
 11
-186.6654546000533
 21
-182.3378725447251
 31
0.0
  0
LINE
  5
F6
330
1F
100
AcDbEntity
  8
0
100
AcDbLine
 10
92.42965725665444
 20
-316.7158910705558
 30
0.0
 11
-60.52502501281659
 21
-243.0716520476823
 31
0.0
  0
LINE
  5
F7
330
1F
100
AcDbEntity
  8
0
100
AcDbLine
 10
316.6511464540208
 20
127.5798035780653
 30
0.0
 11
316.6511464540204
 21
369.1342612291737
 31
0.0
  0
LINE
  5
F8
330
1F
100
AcDbEntity
  8
0
100
AcDbLine
 10
316.6511464540204
 20
369.1342612291737
 30
0.0
 11
367.4674423113208
 21
369.1342612291734
 31
0.0
  0
LINE
  5
F9
330
1F
100
AcDbEntity
  8
0
100
AcDbLine
 10
367.4674423113208
 20
369.1342612291734
 30
0.0
 11
378.4093519089481
 21
127.5798035780639
 31
0.0
  0
LINE
  5
FA
330
1F
100
AcDbEntity
  8
0
100
AcDbLine
 10
316.6511464540208
 20
127.5798035780653
 30
0.0
 11
378.4093519089481
 21
127.5798035780639
 31
0.0
  0
LINE
  5
FB
330
1F
100
AcDbEntity
  8
0
100
AcDbLine
 10
378.4093519089481
 20
127.5798035780639
 30
0.0
 11
378.6583898020717
 21
122.0820234446009
 31
0.0
  0
LINE
  5
FC
330
1F
100
AcDbEntity
  8
0
100
AcDbLine
 10
378.6583898020717
 20
122.0820234446009
 30
0.0
 11
395.9053797349291
 21
122.0820234446013
 31
0.0
  0
LINE
  5
FD
330
1F
100
AcDbEntity
  8
0
100
AcDbLine
 10
395.9053797349291
 20
122.0820234446013
 30
0.0
 11
395.9053797349284
 21
116.0820234446012
 31
0.0
  0
LINE
  5
FE
330
1F
100
AcDbEntity
  8
0
100
AcDbLine
 10
395.9053797349284
 20
116.0820234446012
 30
0.0
 11
405.9053797349301
 21
116.0820234446016
 31
0.0
  0
LINE
  5
FF
330
1F
100
AcDbEntity
  8
0
100
AcDbLine
 10
405.9053797349301
 20
116.0820234446016
 30
0.0
 11
405.9053797349282
 21
122.0820234446011
 31
0.0
  0
LINE
  5
100
330
1F
100
AcDbEntity
  8
0
100
AcDbLine
 10
405.9053797349282
 20
122.0820234446011
 30
0.0
 11
413.8500590752436
 21
122.0820234446016
 31
0.0
  0
LINE
  5
101
330
1F
100
AcDbEntity
  8
0
100
AcDbLine
 10
427.1564158949816
 20
101.0227910324517
 30
0.0
 11
413.8500590752436
 21
122.0820234446016
 31
0.0
  0
LINE
  5
102
330
1F
100
AcDbEntity
  8
0
100
AcDbLine
 10
427.1564158949816
 20
101.0227910324517
 30
0.0
 11
505.0351455099865
 21
95.18749355296701
 31
0.0
  0
LINE
  5
103
330
1F
100
AcDbEntity
  8
0
100
AcDbLine
 10
445.9491890594596
 20
36.58202344460129
 30
0.0
 11
485.8998468223904
 21
36.58202344460156
 31
0.0
  0
LINE
  5
104
330
1F
100
AcDbEntity
  8
0
100
AcDbLine
 10
317.7900151914025
 20
36.58202344460143
 30
0.0
 11
411.4392667000225
 21
36.58202344460205
 31
0.0
  0
LINE
  5
105
330
1F
100
AcDbEntity
  8
0
100
AcDbLine
 10
212.598462380573
 20
36.58202344460039
 30
0.0
 11
232.5491201435027
 21
36.58202344460133
 31
0.0
  0
LINE
  5
106
330
1F
100
AcDbEntity
  8
0
100
AcDbLine
 10
186.1352712104871
 20
116.0820234446012
 30
0.0
 11
154.1352712104871
 21
116.0820234446013
 31
0.0
  0
LINE
  5
107
330
1F
100
AcDbEntity
  8
0
100
AcDbLine
 10
154.1352712104871
 20
116.0820234446013
 30
0.0
 11
154.1352712104861
 21
36.58235427219604
 31
0.0
  0
LINE
  5
108
330
1F
100
AcDbEntity
  8
0
100
AcDbLine
 10
72.05135659652598
 20
36.58235427219731
 30
0.0
 11
154.1352712104861
 21
36.58235427219604
 31
0.0
  0
LINE
  5
109
330
1F
100
AcDbEntity
  8
0
100
AcDbLine
 10
32.05135659799081
 20
36.5825154865334
 30
0.0
 11
52.05135659799024
 21
36.58251548653249
 31
0.0
  0
LINE
  5
10A
330
1F
100
AcDbEntity
  8
0
100
AcDbLine
 10
-137.7090886463377
 20
36.58202344460101
 30
0.0
 11
-207.7090884540962
 21
36.5820234446012
 31
0.0
  0
LINE
  5
10B
330
1F
100
AcDbEntity
  8
0
100
AcDbLine
 10
-277.7090884540955
 20
36.58202344460129
 30
0.0
 11
-347.7090880114731
 21
36.58202344460147
 31
0.0
  0
LINE
  5
10C
330
1F
100
AcDbEntity
  8
0
100
AcDbLine
 10
-416.4227447681495
 20
36.58202344460143
 30
0.0
 11
-505.0351455099843
 21
36.58202344460074
 31
0.0
  0
LINE
  5
10D
330
1F
100
AcDbEntity
  8
0
100
AcDbLine
 10
-469.411650534609
 20
47.89122136599807
 30
0.0
 11
-505.0351455099843
 21
36.58202344460074
 31
0.0
  0
LINE
  5
10E
330
1F
100
AcDbEntity
  8
0
100
AcDbLine
 10
-453.3876035867602
 20
52.08584594157917
 30
0.0
 11
-469.411650534609
 21
47.89122136599807
 31
0.0
  0
LINE
  5
10F
330
1F
100
AcDbEntity
  8
0
100
AcDbLine
 10
-410.4587755365104
 20
61.07962184886165
 30
0.0
 11
-453.3876035867602
 21
52.08584594157917
 31
0.0
  0
LINE
  5
110
330
1F
100
AcDbEntity
  8
0
100
AcDbLine
 10
-396.9684852871463
 20
63.28200172778094
 30
0.0
 11
-410.4587755365104
 21
61.07962184886165
 31
0.0
  0
LINE
  5
111
330
1F
100
AcDbEntity
  8
0
100
AcDbLine
 10
-381.5385369990157
 20
64.15981049570809
 30
0.0
 11
-396.9684852871463
 21
63.28200172778094
 31
0.0
  0
LINE
  5
112
330
1F
100
AcDbEntity
  8
0
100
AcDbLine
 10
-352.5922829018329
 20
64.15981049570944
 30
0.0
 11
-258.1698106856968
 21
158.2374212668203
 31
0.0
  0
LINE
  5
113
330
1F
100
AcDbEntity
  8
0
100
AcDbLine
 10
-258.1698106856968
 20
158.2374212668203
 30
0.0
 11
-225.832180685698
 21
158.2374212668197
 31
0.0
  0
LINE
  5
114
330
1F
100
AcDbEntity
  8
0
100
AcDbLine
 10
-225.832180685698
 20
158.2374212668197
 30
0.0
 11
-249.827730337235
 21
76.54170407238836
 31
0.0
  0
LINE
  5
115
330
1F
100
AcDbEntity
  8
0
100
AcDbLine
 10
-201.3587212174738
 20
76.54170407238894
 30
0.0
 11
-249.827730337235
 21
76.54170407238836
 31
0.0
  0
LINE
  5
116
330
1F
100
AcDbEntity
  8
0
100
AcDbLine
 10
-185.0429516883294
 20
96.51476049697273
 30
0.0
 11
-201.3587212174738
 21
76.54170407238894
 31
0.0
  0
LINE
  5
117
330
1F
100
AcDbEntity
  8
0
100
AcDbLine
 10
-185.0429516883294
 20
96.51476049697273
 30
0.0
 11
-162.378240906397
 21
98.22379607811092
 31
0.0
  0
LINE
  5
118
330
1F
100
AcDbEntity
  8
0
100
AcDbLine
 10
-161.9270908820315
 20
92.24078148448915
 30
0.0
 11
-162.378240906397
 21
98.22379607811092
 31
0.0
  0
LINE
  5
119
330
1F
100
AcDbEntity
  8
0
100
AcDbLine
 10
-161.9270908820315
 20
92.24078148448915
 30
0.0
 11
-142.026559010836
 21
93.74138378088932
 31
0.0
  0
LINE
  5
11A
330
1F
100
AcDbEntity
  8
0
100
AcDbLine
 10
-142.026559010836
 20
93.74138378088932
 30
0.0
 11
-142.477709035216
 21
99.72439837472066
 31
0.0
  0
LINE
  5
11B
330
1F
100
AcDbEntity
  8
0
100
AcDbLine
 10
-142.477709035216
 20
99.72439837472066
 30
0.0
 11
-107.1381373244232
 21
102.3891835580386
 31
0.0
  0
LINE
  5
11C
330
1F
100
AcDbEntity
  8
0
100
AcDbLine
 10
-107.1381373244232
 20
102.3891835580386
 30
0.0
 11
269.3908694871268
 21
393.5718804396908
 31
0.0
  0
LINE
  5
11D
330
1F
100
AcDbEntity
  8
0
100
AcDbLine
 10
269.3908694871268
 20
393.5718804396908
 30
0.0
 11
295.6761262608583
 21
393.5718804396914
 31
0.0
  0
LINE
  5
11E
330
1F
100
AcDbEntity
  8
0
100
AcDbLine
 10
295.6761262608578
 20
399.5718804396908
 30
0.0
 11
340.1761262608582
 21
399.5718804396914
 31
0.0
  0
LINE
  5
11F
330
1F
100
AcDbEntity
  8
0
100
AcDbLine
 10
340.1761262608578
 20
393.5718804396911
 30
0.0
 11
366.3604694871275
 21
393.5718804396914
 31
0.0
  0
LINE
  5
120
330
1F
100
AcDbEntity
  8
0
100
AcDbLine
 10
366.3604694871275
 20
393.5718804396914
 30
0.0
 11
367.4674423113208
 21
369.1342612291734
 31
0.0
  0
LINE
  5
121
330
1F
100
AcDbEntity
  8
0
100
AcDbLine
 10
285.6176066443956
 20
116.0820234446005
 30
0.0
 11
305.6176066443952
 21
116.0820234446007
 31
0.0
  0
LINE
  5
122
330
1F
100
AcDbEntity
  8
0
100
AcDbLine
 10
305.6176066443949
 20
122.0820234446003
 30
0.0
 11
305.6176066443952
 21
116.0820234446007
 31
0.0
  0
LINE
  5
123
330
1F
100
AcDbEntity
  8
0
100
AcDbLine
 10
285.6176066443955
 20
122.0820234446008
 30
0.0
 11
305.6176066443949
 21
122.0820234446003
 31
0.0
  0
LINE
  5
124
330
1F
100
AcDbEntity
  8
0
100
AcDbLine
 10
285.6176066443955
 20
122.0820234446008
 30
0.0
 11
285.6176066443956
 21
116.0820234446005
 31
0.0
  0
LINE
  5
125
330
1F
100
AcDbEntity
  8
0
100
AcDbLine
 10
-3.993422113479492
 20
104.1497911314184
 30
0.0
 11
-4.444572138020412
 21
110.1328057273588
 31
0.0
  0
LINE
  5
126
330
1F
100
AcDbEntity
  8
0
100
AcDbLine
 10
-4.444572138020412
 20
110.1328057273588
 30
0.0
 11
-24.34510400922164
 21
108.6322034309565
 31
0.0
  0
LINE
  5
127
330
1F
100
AcDbEntity
  8
0
100
AcDbLine
 10
-24.34510400922164
 20
108.6322034309565
 30
0.0
 11
-23.89395398467892
 21
102.6491888350161
 31
0.0
  0
LINE
  5
128
330
1F
100
AcDbEntity
  8
0
100
AcDbLine
 10
-23.89395398467892
 20
102.6491888350161
 30
0.0
 11
-3.993422113479492
 21
104.1497911314184
 31
0.0
  0
LINE
  5
129
330
1F
100
AcDbEntity
  8
0
100
AcDbLine
 10
133.5885647593314
 20
120.5412130778859
 30
0.0
 11
134.0397147838713
 21
114.5581984819443
 31
0.0
  0
LINE
  5
12A
330
1F
100
AcDbEntity
  8
0
100
AcDbLine
 10
113.6880328881338
 20
119.040610781485
 30
0.0
 11
133.5885647593314
 21
120.5412130778859
 31
0.0
  0
LINE
  5
12B
330
1F
100
AcDbEntity
  8
0
100
AcDbLine
 10
114.1391829126733
 20
113.0575961855437
 30
0.0
 11
113.6880328881338
 21
119.040610781485
 31
0.0
  0
LINE
  5
12C
330
1F
100
AcDbEntity
  8
0
100
AcDbLine
 10
134.0397147838713
 20
114.5581984819443
 30
0.0
 11
114.1391829126733
 21
113.0575961855437
 31
0.0
  0
LINE
  5
12D
330
1F
100
AcDbEntity
  8
0
100
AcDbLine
 10
221.1352712104874
 20
116.0820234446015
 30
0.0
 11
201.135271210484
 21
116.0820234445999
 31
0.0
  0
LINE
  5
12E
330
1F
100
AcDbEntity
  8
0
100
AcDbLine
 10
221.1352712104867
 20
122.0820234446015
 30
0.0
 11
221.1352712104874
 21
116.0820234446015
 31
0.0
  0
LINE
  5
12F
330
1F
100
AcDbEntity
  8
0
100
AcDbLine
 10
201.1352712104869
 20
122.0820234446019
 30
0.0
 11
221.1352712104867
 21
122.0820234446015
 31
0.0
  0
LINE
  5
130
330
1F
100
AcDbEntity
  8
0
100
AcDbLine
 10
201.1352712104869
 20
122.0820234446019
 30
0.0
 11
201.135271210484
 21
116.0820234445999
 31
0.0
  0
LINE
  5
131
330
1F
100
AcDbEntity
  8
0
100
AcDbLine
 10
130.997259520124
 20
489.2676476253349
 30
0.0
 11
111.0536407733833
 21
487.7670453499234
 31
0.0
  0
LINE
  5
132
330
1F
100
AcDbEntity
  8
0
100
AcDbLine
 10
-26.82817469236011
 20
471.375550389052
 30
0.0
 11
-27.2783552265886
 21
477.3586379993912
 31
0.0
  0
LINE
  5
133
330
1F
100
AcDbEntity
  8
0
100
AcDbLine
 10
-6.88455594561898
 20
472.8761526644632
 30
0.0
 11
111.5038213076132
 21
481.7839577395842
 31
0.0
  0
LINE
  5
134
330
1F
100
AcDbEntity
  8
0
100
AcDbLine
 10
-185.1037894390709
 20
459.4665407631091
 30
0.0
 11
-165.1601706923327
 21
460.96714303852
 31
0.0
  0
LINE
  5
135
330
1F
100
AcDbEntity
  8
0
100
AcDbLine
 10
131.4474400543539
 20
483.284560014996
 30
0.0
 11
151.3910588010944
 21
484.7851622904075
 31
0.0
  0
LINE
  5
136
330
1F
100
AcDbEntity
  8
0
100
AcDbLine
 10
-165.1601706923327
 20
460.96714303852
 30
0.0
 11
-165.6103512265619
 21
466.9502306488588
 31
0.0
  0
LINE
  5
137
330
1F
100
AcDbEntity
  8
0
100
AcDbLine
 10
-7.334736479848185
 20
478.8592402748021
 30
0.0
 11
-27.2783552265886
 21
477.3586379993912
 31
0.0
  0
LINE
  5
138
330
1F
100
AcDbEntity
  8
0
100
AcDbLine
 10
-145.6667324798204
 20
468.4508329242691
 30
0.0
 11
-165.6103512265619
 21
466.9502306488588
 31
0.0
  0
LINE
  5
139
330
1F
100
AcDbEntity
  8
0
100
AcDbLine
 10
131.4474400543539
 20
483.284560014996
 30
0.0
 11
130.997259520124
 21
489.2676476253349
 31
0.0
  0
LINE
  5
13A
330
1F
100
AcDbEntity
  8
0
100
AcDbLine
 10
-145.2165519455937
 20
462.4677453139315
 30
0.0
 11
-26.82817469236011
 21
471.375550389052
 31
0.0
  0
LINE
  5
13B
330
1F
100
AcDbEntity
  8
0
100
AcDbLine
 10
-6.88455594561898
 20
472.8761526644632
 30
0.0
 11
-7.334736479848185
 21
478.8592402748021
 31
0.0
  0
LINE
  5
13C
330
1F
100
AcDbEntity
  8
0
100
AcDbLine
 10
-145.2165519455937
 20
462.4677453139315
 30
0.0
 11
-145.6667324798204
 21
468.4508329242691
 31
0.0
  0
LINE
  5
13D
330
1F
100
AcDbEntity
  8
0
100
AcDbLine
 10
-160.887637168814
 20
405.2941838799864
 30
0.0
 11
-170.8876338389661
 21
405.2942428067013
 31
0.0
  0
LINE
  5
13E
330
1F
100
AcDbEntity
  8
0
100
AcDbLine
 10
-190.8876271808898
 20
402.2935650785042
 30
0.0
 11
-185.1037894390709
 21
459.4665407631091
 31
0.0
  0
LINE
  5
13F
330
1F
100
AcDbEntity
  8
0
100
AcDbLine
 10
111.5038213076132
 20
481.7839577395842
 30
0.0
 11
111.0536407733833
 21
487.7670453499234
 31
0.0
  0
LINE
  5
140
330
1F
100
AcDbEntity
  8
0
100
AcDbLine
 10
-464.3148890754806
 20
152.2182365826578
 30
0.0
 11
-443.6178638679114
 21
171.3663276572013
 31
0.0
  0
LINE
  5
141
330
1F
100
AcDbEntity
  8
0
100
AcDbLine
 10
-422.3200051293001
 20
129.4556238178943
 30
0.0
 11
-442.4100255871885
 21
137.3042513486835
 31
0.0
  0
LINE
  5
142
330
1F
100
AcDbEntity
  8
0
100
AcDbLine
 10
-442.4100255871885
 20
137.3042513486835
 30
0.0
 11
-464.3148890754806
 21
152.2182365826578
 31
0.0
  0
LINE
  5
143
330
1F
100
AcDbEntity
  8
0
100
AcDbLine
 10
-286.7773253497573
 20
349.08401938855
 30
0.0
 11
-303.8386104502908
 21
356.1298482591474
 31
0.0
  0
LINE
  5
144
330
1F
100
AcDbEntity
  8
0
100
AcDbLine
 10
-284.4871042089579
 20
354.6297282815806
 30
0.0
 11
-301.6548723600641
 21
361.7195316445769
 31
0.0
  0
LINE
  5
145
330
1F
100
AcDbEntity
  8
0
100
AcDbLine
 10
-215.6643206481542
 20
326.2078624895183
 30
0.0
 11
-217.9545417889536
 21
320.6621535964881
 31
0.0
  0
LINE
  5
146
330
1F
100
AcDbEntity
  8
0
100
AcDbLine
 10
-266.0014078988577
 20
346.9956578122518
 30
0.0
 11
-247.5157115887579
 21
339.3615873429234
 31
0.0
  0
LINE
  5
147
330
1F
100
AcDbEntity
  8
0
100
AcDbLine
 10
-268.2916290396572
 20
341.4499489192223
 30
0.0
 11
-286.7773253497573
 21
349.08401938855
 31
0.0
  0
LINE
  5
148
330
1F
100
AcDbEntity
  8
0
100
AcDbLine
 10
-298.6677578569121
 20
369.3117892339307
 30
0.0
 11
-301.6548723600641
 21
361.7195316445769
 31
0.0
  0
LINE
  5
149
330
1F
100
AcDbEntity
  8
0
100
AcDbLine
 10
-443.6178638679114
 20
171.3663276572013
 30
0.0
 11
-410.9348789796924
 21
158.5979695801256
 31
0.0
  0
LINE
  5
14A
330
1F
100
AcDbEntity
  8
0
100
AcDbLine
 10
-410.9348789796924
 20
158.5979695801256
 30
0.0
 11
-251.9005669892072
 21
271.005114018423
 31
0.0
  0
LINE
  5
14B
330
1F
100
AcDbEntity
  8
0
100
AcDbLine
 10
-267.1921247497444
 20
344.2416374714814
 30
0.0
 11
-267.1465184692576
 21
344.2228033657371
 31
0.0
  0
LINE
  5
14C
330
1F
100
AcDbEntity
  8
0
100
AcDbLine
 10
-286.7773253497573
 20
349.08401938855
 30
0.0
 11
-284.4871042089579
 21
354.6297282815806
 31
0.0
  0
LINE
  5
14D
330
1F
100
AcDbEntity
  8
0
100
AcDbLine
 10
-268.2916290396572
 20
341.4499489192223
 30
0.0
 11
-267.1921247497444
 21
344.2416374714814
 31
0.0
  0
LINE
  5
14E
330
1F
100
AcDbEntity
  8
0
100
AcDbLine
 10
-106.6640554330706
 20
181.2947967407319
 30
0.0
 11
-146.0803465826306
 21
194.5957738481827
 31
0.0
  0
LINE
  5
14F
330
1F
100
AcDbEntity
  8
0
100
AcDbLine
 10
-35.55882385105735
 20
172.0693335164497
 30
0.0
 11
-99.45904777564321
 21
199.7373525467052
 31
0.0
  0
LINE
  5
150
330
1F
100
AcDbEntity
  8
0
100
AcDbLine
 10
-413.5697197510814
 20
129.4841370852512
 30
0.0
 11
-422.3200051293001
 21
129.4556238178943
 31
0.0
  0
LINE
  5
151
330
1F
100
AcDbEntity
  8
0
100
AcDbLine
 10
-310.9738621740805
 20
294.0834524349614
 30
0.0
 11
-325.8135467641047
 21
299.8809157708315
 31
0.0
  0
LINE
  5
152
330
1F
100
AcDbEntity
  8
0
100
AcDbLine
 10
-146.0803465826306
 20
194.5957738481827
 30
0.0
 11
-413.5697197510814
 21
129.4841370852512
 31
0.0
  0
LINE
  5
153
330
1F
100
AcDbEntity
  8
0
100
AcDbLine
 10
-99.45904777564321
 20
199.7373525467052
 30
0.0
 11
-106.6640554330706
 21
181.2947967407319
 31
0.0
  0
LINE
  5
154
330
1F
100
AcDbEntity
  8
0
100
AcDbLine
 10
-298.6677578569121
 20
369.3117892339307
 30
0.0
 11
-121.7236341942142
 21
309.5157521713905
 31
0.0
  0
LINE
  5
155
330
1F
100
AcDbEntity
  8
0
100
AcDbLine
 10
-130.2508500657211
 20
287.6887587721663
 30
0.0
 11
-121.7236341942142
 21
309.5157521713905
 31
0.0
  0
LINE
  5
156
330
1F
100
AcDbEntity
  8
0
100
AcDbLine
 10
-130.2508500657211
 20
287.6887587721663
 30
0.0
 11
-131.3959606361217
 21
284.915904325651
 31
0.0
  0
LINE
  5
157
330
1F
100
AcDbEntity
  8
0
100
AcDbLine
 10
-158.8870485697166
 20
257.6444892279126
 30
0.0
 11
-131.3959606361217
 21
284.915904325651
 31
0.0
  0
LINE
  5
158
330
1F
100
AcDbEntity
  8
0
100
AcDbLine
 10
-217.7170854308737
 20
281.9396328671683
 30
0.0
 11
-158.8870485697166
 21
257.6444892279126
 31
0.0
  0
LINE
  5
159
330
1F
100
AcDbEntity
  8
0
100
AcDbLine
 10
-217.7170854308737
 20
281.9396328671683
 30
0.0
 11
-217.9545417889536
 21
320.6621535964881
 31
0.0
  0
LINE
  5
15A
330
1F
100
AcDbEntity
  8
0
100
AcDbLine
 10
-247.5157115887579
 20
339.3615873429234
 30
0.0
 11
-215.6643206481542
 21
326.2078624895183
 31
0.0
  0
LINE
  5
15B
330
1F
100
AcDbEntity
  8
0
100
AcDbLine
 10
-267.1465184692576
 20
344.2228033657371
 30
0.0
 11
-266.0014078988577
 21
346.9956578122518
 31
0.0
  0
LINE
  5
15C
330
1F
100
AcDbEntity
  8
0
100
AcDbLine
 10
-310.9738621740805
 20
294.0834524349614
 30
0.0
 11
-251.9005669892072
 21
271.005114018423
 31
0.0
  0
LINE
  5
15D
330
1F
100
AcDbEntity
  8
0
100
AcDbLine
 10
-443.6178638679114
 20
171.3663276572013
 30
0.0
 11
-310.9738621740805
 21
294.0834524349614
 31
0.0
  0
LINE
  5
15E
330
1F
100
AcDbEntity
  8
0
100
AcDbLine
 10
-268.2916290396572
 20
341.4499489192223
 30
0.0
 11
-267.1465184692576
 21
344.2228033657371
 31
0.0
  0
LINE
  5
15F
330
1F
100
AcDbEntity
  8
0
100
AcDbLine
 10
-248.6608221591592
 20
336.588732896408
 30
0.0
 11
-247.5157115887579
 21
339.3615873429234
 31
0.0
  0
LINE
  5
160
330
1F
100
AcDbEntity
  8
0
100
AcDbLine
 10
-248.7064284396431
 20
336.6075670021532
 30
0.0
 11
-248.6608221591592
 21
336.588732896408
 31
0.0
  0
LINE
  5
161
330
1F
100
AcDbEntity
  8
0
100
AcDbLine
 10
-249.8059327295573
 20
333.8158784498918
 30
0.0
 11
-248.7064284396431
 21
336.6075670021532
 31
0.0
  0
LINE
  5
162
330
1F
100
AcDbEntity
  8
0
100
AcDbLine
 10
-217.9545417889536
 20
320.6621535964881
 30
0.0
 11
-249.8059327295573
 21
333.8158784498918
 31
0.0
  0
LINE
  5
163
330
1F
100
AcDbEntity
  8
0
100
AcDbLine
 10
-131.3959606361217
 20
284.915904325651
 30
0.0
 11
-52.60909568329109
 21
252.3791543424377
 31
0.0
  0
LINE
  5
164
330
1F
100
AcDbEntity
  8
0
100
AcDbLine
 10
-52.60909568329109
 20
252.3791543424377
 30
0.0
 11
-50.31887454249348
 21
257.9248632354685
 31
0.0
  0
LINE
  5
165
330
1F
100
AcDbEntity
  8
0
100
AcDbLine
 10
-50.31887454249348
 20
257.9248632354685
 30
0.0
 11
-31.83317823239146
 21
250.2907927661386
 31
0.0
  0
LINE
  5
166
330
1F
100
AcDbEntity
  8
0
100
AcDbLine
 10
-32.97828880279424
 20
247.5179383196229
 30
0.0
 11
-31.83317823239146
 21
250.2907927661386
 31
0.0
  0
LINE
  5
167
330
1F
100
AcDbEntity
  8
0
100
AcDbLine
 10
-33.02389508327852
 20
247.5367724253688
 30
0.0
 11
-32.97828880279424
 21
247.5179383196229
 31
0.0
  0
LINE
  5
168
330
1F
100
AcDbEntity
  8
0
100
AcDbLine
 10
-34.12339937318871
 20
244.7450838731098
 30
0.0
 11
-33.02389508327852
 21
247.5367724253688
 31
0.0
  0
LINE
  5
169
330
1F
100
AcDbEntity
  8
0
100
AcDbLine
 10
-34.12339937318871
 20
244.7450838731098
 30
0.0
 11
-9.709479885362894
 21
234.6628246670634
 31
0.0
  0
LINE
  5
16A
330
1F
100
AcDbEntity
  8
0
100
AcDbLine
 10
-9.709479885362894
 20
234.6628246670634
 30
0.0
 11
-35.55882385105735
 21
172.0693335164497
 31
0.0
  0
LINE
  5
16B
330
1F
100
AcDbEntity
  8
0
100
AcDbLine
 10
-303.8386104502908
 20
356.1298482591474
 30
0.0
 11
-325.8135467641047
 21
299.8809157708315
 31
0.0
  0
LINE
  5
16C
330
1F
100
AcDbEntity
  8
0
100
AcDbLine
 10
-140.4766182516771
 20
364.8488935411434
 30
0.0
 11
29.09109940465999
 21
352.0902409522412
 31
0.0
  0
LINE
  5
16D
330
1F
100
AcDbEntity
  8
0
100
AcDbLine
 10
29.09109940465999
 20
452.4967970221414
 30
0.0
 11
-140.4766182555169
 21
439.7381444332401
 31
0.0
  0
LINE
  5
16E
330
1F
100
AcDbEntity
  8
0
100
AcDbLine
 10
29.09109940465999
 20
452.4967970221414
 30
0.0
 11
29.09109940465999
 21
352.0902409522412
 31
0.0
  0
LINE
  5
16F
330
1F
100
AcDbEntity
  8
0
100
AcDbLine
 10
-140.4766182555169
 20
439.7381444332401
 30
0.0
 11
-140.4766182516771
 21
364.8488935411434
 31
0.0
  0
LINE
  5
170
330
1F
100
AcDbEntity
  8
0
100
AcDbLine
 10
-160.887637168814
 20
405.2941838799864
 30
0.0
 11
-160.8876371688147
 21
399.2928540943965
 31
0.0
  0
LINE
  5
171
330
1F
100
AcDbEntity
  8
0
100
AcDbLine
 10
84.2626395439525
 20
399.2931276131941
 30
0.0
 11
84.26263954395287
 21
405.2939103611897
 31
0.0
  0
LINE
  5
172
330
1F
100
AcDbEntity
  8
0
100
AcDbLine
 10
64.26264618332621
 20
405.2939103611891
 30
0.0
 11
84.26263954395287
 21
405.2939103611897
 31
0.0
  0
LINE
  5
173
330
1F
100
AcDbEntity
  8
0
100
AcDbLine
 10
64.26264618332621
 20
405.2939103611891
 30
0.0
 11
64.26264618332621
 21
399.2931276131941
 31
0.0
  0
LINE
  5
174
330
1F
100
AcDbEntity
  8
0
100
AcDbLine
 10
64.26264618332621
 20
399.2931276131941
 30
0.0
 11
84.2626395439525
 21
399.2931276131941
 31
0.0
  0
LINE
  5
175
330
1F
100
AcDbEntity
  8
0
100
AcDbLine
 10
-170.8876338389661
 20
405.2942428067013
 30
0.0
 11
-170.8876338389665
 21
399.2927951676801
 31
0.0
  0
LINE
  5
176
330
1F
100
AcDbEntity
  8
0
100
AcDbLine
 10
15.52589812362102
 20
-342.4015110915811
 30
0.0
 11
12.94283154277345
 21
-347.8170227976782
 31
0.0
  0
LINE
  5
177
330
1F
100
AcDbEntity
  8
0
100
AcDbLine
 10
-63.34094065054131
 20
-304.783958655051
 30
0.0
 11
-65.92400723138996
 21
-310.1994703611496
 31
0.0
  0
LINE
  5
178
330
1F
100
AcDbEntity
  8
0
100
AcDbLine
 10
-206.2942325549519
 20
-236.5987360979809
 30
0.0
 11
-208.8772991358027
 21
-242.0142478040796
 31
0.0
  0
LINE
  5
179
330
1F
100
AcDbEntity
  8
0
100
AcDbLine
 10
-188.281312549875
 20
-245.1904582128537
 30
0.0
 11
-190.8643791307244
 21
-250.6059699189524
 31
0.0
  0
LINE
  5
17A
330
1F
100
AcDbEntity
  8
0
100
AcDbLine
 10
182.2966790655054
 20
-421.9470931698324
 30
0.0
 11
179.7136124846553
 21
-427.3626048759322
 31
0.0
  0
LINE
  5
17B
330
1F
100
AcDbEntity
  8
0
100
AcDbLine
 10
73.72670518677745
 20
-370.1618720439959
 30
0.0
 11
71.14363860592735
 21
-375.5773837500948
 31
0.0
  0
LINE
  5
17C
330
1F
100
AcDbEntity
  8
0
100
AcDbLine
 10
89.19534429292538
 20
-384.1876056862611
 30
0.0
 11
91.77841087377259
 21
-378.7720939801617
 31
0.0
  0
LINE
  5
17D
330
1F
100
AcDbEntity
  8
0
100
AcDbLine
 10
-2.52580756337809
 20
-333.7912891554147
 30
0.0
 11
-5.108874144225662
 21
-339.2068008615122
 31
0.0
  0
LINE
  5
17E
330
1F
100
AcDbEntity
  8
0
100
AcDbLine
 10
-206.2115042290472
 20
-282.7818868082387
 30
0.0
 11
-208.4342093655887
 21
-288.3549992129883
 31
0.0
  0
LINE
  5
17F
330
1F
100
AcDbEntity
  8
0
100
AcDbLine
 10
-331.2346044542859
 20
-177.0052356557855
 30
0.0
 11
-333.8176710351382
 21
-182.420747361886
 31
0.0
  0
LINE
  5
180
330
1F
100
AcDbEntity
  8
0
100
AcDbLine
 10
-313.2216844492091
 20
-185.5969577706563
 30
0.0
 11
-315.8047510300577
 21
-191.0124694767553
 31
0.0
  0
LINE
  5
181
330
1F
100
AcDbEntity
  8
0
100
AcDbLine
 10
-81.35386065561852
 20
-296.1922365401773
 30
0.0
 11
-83.93692723646899
 21
-301.6077482462754
 31
0.0
  0
LINE
  5
182
330
1F
100
AcDbEntity
  8
0
100
AcDbLine
 10
-79.58099267609879
 20
-339.7450499561588
 30
0.0
 11
-77.35828753955553
 21
-334.1719375514074
 31
0.0
  0
LINE
  5
183
330
1F
100
AcDbEntity
  8
0
100
AcDbLine
 10
-337.2874260550797
 20
-236.9649484698209
 30
0.0
 11
-335.0647209185368
 21
-231.3918360650703
 31
0.0
  0
LINE
  5
184
330
1F
100
AcDbEntity
  8
0
100
AcDbLine
 10
170.6877596411585
 20
-423.0574939078468
 30
0.0
 11
173.2708262220068
 21
-417.6419822017496
 31
0.0
  0
LINE
  5
185
330
1F
100
AcDbEntity
  8
0
100
AcDbLine
 10
-381.5385369990132
 20
3.004236393493551
 30
0.0
 11
-352.5922829018332
 21
3.004236393491476
 31
0.0
  0
LINE
  5
186
330
1F
100
AcDbEntity
  8
0
100
AcDbLine
 10
295.6761262608606
 20
-332.4078335504875
 30
0.0
 11
295.67612626086
 21
-326.407833550488
 31
0.0
  0
LINE
  5
187
330
1F
100
AcDbEntity
  8
0
100
AcDbLine
 10
340.1761262608584
 20
-326.4078335504892
 30
0.0
 11
340.1761262608574
 21
-332.4078335504904
 31
0.0
  0
LINE
  5
188
330
1F
100
AcDbEntity
  8
0
100
AcDbLine
 10
93.10168823536092
 20
289.5321526872735
 30
0.0
 11
-55.72933176463854
 21
289.5321526872735
 31
0.0
  0
LINE
  5
189
330
1F
100
AcDbEntity
  8
0
100
AcDbLine
 10
66.91734500909268
 20
283.2248026872738
 30
0.0
 11
66.9173450090916
 21
277.2248026872749
 31
0.0
  0
LINE
  5
18A
330
1F
100
AcDbEntity
  8
0
100
AcDbLine
 10
22.4173450090909
 20
283.2248026872732
 30
0.0
 11
22.41734500909234
 21
277.224802687275
 31
0.0
  0
LINE
  5
18B
330
1F
100
AcDbEntity
  8
0
100
AcDbLine
 10
110.4497186495523
 20
-325.3921452965101
 30
0.0
 11
107.8468423819842
 21
-330.7981637134853
 31
0.0
  0
LINE
  5
18C
330
1F
100
AcDbEntity
  8
0
100
AcDbLine
 10
-76.19008879910136
 20
-121.2087783759258
 30
0.0
 11
-39.14352216809063
 21
-146.2216130981584
 31
0.0
  0
LINE
  5
18D
330
1F
100
AcDbEntity
  8
0
100
AcDbLine
 10
-381.5385369990157
 20
64.15981049570809
 30
0.0
 11
-352.5922829018329
 21
64.15981049570944
 31
0.0
  0
LINE
  5
18E
330
1F
100
AcDbEntity
  8
0
100
AcDbLine
 10
295.6761262608583
 20
393.5718804396914
 30
0.0
 11
295.6761262608578
 21
399.5718804396908
 31
0.0
  0
LINE
  5
18F
330
1F
100
AcDbEntity
  8
0
100
AcDbLine
 10
340.1761262608582
 20
399.5718804396914
 30
0.0
 11
340.1761262608578
 21
393.5718804396911
 31
0.0
  0
LINE
  5
190
330
1F
100
AcDbEntity
  8
0
100
AcDbLine
 10
-354.154793392176
 20
-172.7204375920824
 30
0.0
 11
-373.9461733813607
 21
-222.3444671186896
 31
0.0
  0
LINE
  5
191
330
1F
100
AcDbEntity
  8
0
100
AcDbLine
 10
-30.44035737080469
 20
390.8523375810554
 30
0.0
 11
-30.30291060282779
 21
390.8523375810556
 31
0.0
  0
LINE
  5
192
330
1F
100
AcDbEntity
  8
0
100
AcDbLine
 10
-136.7585964737919
 20
-418.8792105575153
 30
0.0
 11
-135.6651562784381
 21
-419.3670150532898
 31
0.0
  0
LINE
  5
193
330
1F
100
AcDbEntity
  8
0
100
AcDbLine
 10
20.89510313228991
 20
-489.2115284724024
 30
0.0
 11
21.02089725284718
 21
-489.2676476253349
 31
0.0
  0
LINE
  5
194
330
1F
100
AcDbEntity
  8
0
100
AcDbLine
 10
-34.12339937318871
 20
244.7450838731098
 30
0.0
 11
-32.97828880279424
 21
247.5179383196229
 31
0.0
  0
LINE
  5
195
330
1F
100
AcDbEntity
  8
0
100
AcDbLine
 10
-249.827730337236
 20
-9.377657183187795
 30
0.0
 11
-250.0120325414782
 21
-9.377657183188472
 31
0.0
  0
LINE
  5
196
330
1F
100
AcDbEntity
  8
0
100
AcDbLine
 10
-249.827730337235
 20
76.54170407238836
 30
0.0
 11
-250.0120325414767
 21
76.54170407238884
 31
0.0
  0
ENDSEC
  0
SECTION
  2
OBJECTS
  0
DICTIONARY
  5
C
330
0
100
AcDbDictionary
  3
ACAD_GROUP
350
D
  3
ACAD_LAYOUT
350
1A
  3
ACAD_MLEADERSTYLE
350
1B8
  3
ACAD_MLINESTYLE
350
17
  3
ACAD_PLOTSETTINGS
350
19
  3
ACAD_TABLESTYLE
350
1B7
  3
ACAD_VISUALSTYLE
350
2A
  3
ACDBHEADERROUNDTRIPXREC
350
197
  0
DICTIONARY
  5
D
102
{ACAD_REACTORS
330
C
102
}
330
C
100
AcDbDictionary
  0
DICTIONARY
  5
1A
102
{ACAD_REACTORS
330
C
102
}
330
C
100
AcDbDictionary
  0
DICTIONARY
  5
1B8
102
{ACAD_REACTORS
330
C
102
}
330
C
100
AcDbDictionary
  0
DICTIONARY
  5
17
102
{ACAD_REACTORS
330
C
102
}
330
C
100
AcDbDictionary
  3
STANDARD
350
18
  0
DICTIONARY
  5
19
102
{ACAD_REACTORS
330
C
102
}
330
C
100
AcDbDictionary
  0
DICTIONARY
  5
1B7
102
{ACAD_REACTORS
330
C
102
}
330
C
100
AcDbDictionary
  0
DICTIONARY
  5
2A
102
{ACAD_REACTORS
330
C
102
}
330
C
100
AcDbDictionary
  3
2DWIREFRAME
350
2F
  3
3D_HIDDEN
350
31
  3
3DWIREFRAME
350
30
  3
BASIC
350
32
  3
BRIGHTEN
350
36
  3
COLORCHANGE
350
3A
  3
CONCEPTUAL
350
34
  3
DIM
350
35
  3
FACEPATTERN
350
39
  3
FLAT
350
2B
  3
FLATWITHEDGES
350
2C
  3
GOURAUD
350
2D
  3
GOURAUDWITHEDGES
350
2E
  3
LINEPATTERN
350
38
  3
REALISTIC
350
33
  3
THICKEN
350
37
  0
DICTIONARY
  5
197
102
{ACAD_REACTORS
330
C
102
}
330
C
100
AcDbDictionary
  3
CEPSNTYPE
350
1A0
  3
DIMSTYLEDATA
350
1B6
  3
FINGERPRINTGUID
350
1A1
  3
HYPERLINKBASE
350
19A
  3
INSUNITS
350
19F
  3
LAYOUTDICT
350
19C
  3
LWETCUNION
350
19E
  3
PLOTSETDICT
350
19D
  3
PSVPSCALE
350
1A3
  3
PUCSBASE
350
1A6
  3
PUCSORGBACK
350
1AC
  3
PUCSORGBOTTOM
350
1A8
  3
PUCSORGFRONT
350
1AB
  3
PUCSORGLEFT
350
1A9
  3
PUCSORGRIGHT
350
1AA
  3
PUCSORGTOP
350
1A7
  3
PUCSORTHOREF
350
1A4
  3
PUCSORTHOVIEW
350
1A5
  3
STYLESHEET
350
19B
  3
TSTACKALIGN
350
198
  3
TSTACKSIZE
350
199
  3
UCSBASE
350
1AF
  3
UCSORGBACK
350
1B5
  3
UCSORGBOTTOM
350
1B1
  3
UCSORGFRONT
350
1B4
  3
UCSORGLEFT
350
1B2
  3
UCSORGRIGHT
350
1B3
  3
UCSORGTOP
350
1B0
  3
UCSORTHOREF
350
1AD
  3
UCSORTHOVIEW
350
1AE
  3
VERSIONGUID
350
1A2
  0
MLINESTYLE
  5
18
102
{ACAD_REACTORS
330
17
102
}
330
17
100
AcDbMlineStyle
  2
Standard
 70
     0
  3

 62
   256
 51
90.0
 52
90.0
 71
     2
 49
0.5
 62
   256
  6
BYLAYER
 49
-0.5
 62
   256
  6
BYLAYER
  0
VISUALSTYLE
  5
2F
102
{ACAD_REACTORS
330
2A
102
}
330
2A
100
AcDbVisualStyle
  2
2dWireframe
 70
     4
 71
     0
 72
     2
 73
     0
 90
        0
 40
-0.6
 41
-30.0
 62
     5
 63
     7
 74
     1
 91
        4
 64
     7
 65
   257
 75
     1
175
     1
 42
1.0
 92
        0
 66
   257
 43
1.0
 76
     1
 77
     6
 78
     2
 67
     7
 79
     5
170
     0
171
     0
290
     0
174
     0
 93
        1
 44
0.0
173
     0
291
     0
 45
0.0
1001
ACAD
1000
AcDbSavedByObjectVersion
1070
     0
  0
VISUALSTYLE
  5
31
102
{ACAD_REACTORS
330
2A
102
}
330
2A
100
AcDbVisualStyle
  2
3D Hidden
 70
     6
 71
     1
 72
     2
 73
     2
 90
        0
 40
-0.6
 41
-30.0
 62
     5
 63
     7
 74
     2
 91
        2
 64
     7
 65
   257
 75
     2
175
     1
 42
40.0
 92
        0
 66
   257
 43
1.0
 76
     1
 77
     6
 78
     2
 67
     7
 79
     3
170
     0
171
     0
290
     0
174
     0
 93
        1
 44
0.0
173
     0
291
     0
 45
0.0
1001
ACAD
1000
AcDbSavedByObjectVersion
1070
     0
  0
VISUALSTYLE
  5
30
102
{ACAD_REACTORS
330
2A
102
}
330
2A
100
AcDbVisualStyle
  2
3dWireframe
 70
     5
 71
     0
 72
     2
 73
     0
 90
        0
 40
-0.6
 41
-30.0
 62
     5
 63
     7
 74
     1
 91
        4
 64
     7
 65
   257
 75
     1
175
     1
 42
1.0
 92
        0
 66
   257
 43
1.0
 76
     1
 77
     6
 78
     2
 67
     7
 79
     5
170
     0
171
     0
290
     0
174
     0
 93
        1
 44
0.0
173
     0
291
     0
 45
0.0
1001
ACAD
1000
AcDbSavedByObjectVersion
1070
     0
  0
VISUALSTYLE
  5
32
102
{ACAD_REACTORS
330
2A
102
}
330
2A
100
AcDbVisualStyle
  2
Basic
 70
     7
 71
     1
 72
     0
 73
     1
 90
        0
 40
-0.6
 41
-30.0
 62
     5
 63
     7
 74
     0
 91
        4
 64
     7
 65
   257
 75
     1
175
     1
 42
1.0
 92
        8
 66
     7
 43
1.0
 76
     1
 77
     6
 78
     2
 67
     7
 79
     5
170
     0
171
     0
290
     0
174
     0
 93
        1
 44
0.0
173
     0
291
     1
 45
0.0
1001
ACAD
1000
AcDbSavedByObjectVersion
1070
     0
  0
VISUALSTYLE
  5
36
102
{ACAD_REACTORS
330
2A
102
}
330
2A
100
AcDbVisualStyle
  2
Brighten
 70
    12
 71
     2
 72
     2
 73
     0
 90
        0
 40
-0.6
 41
-30.0
 62
     5
 63
     7
 74
     1
 91
        4
 64
     7
 65
   257
 75
     1
175
     1
 42
1.0
 92
        8
 66
     7
 43
1.0
 76
     1
 77
     6
 78
     2
 67
     7
 79
     5
170
     0
171
     0
290
     0
174
     0
 93
        1
 44
50.0
173
     0
291
     1
 45
0.0
1001
ACAD
1000
AcDbSavedByObjectVersion
1070
     0
  0
VISUALSTYLE
  5
3A
102
{ACAD_REACTORS
330
2A
102
}
330
2A
100
AcDbVisualStyle
  2
ColorChange
 70
    16
 71
     2
 72
     2
 73
     3
 90
        0
 40
-0.6
 41
-30.0
 62
     5
 63
     8
 74
     1
 91
        4
 64
     7
 65
   257
 75
     1
175
     1
 42
1.0
 92
        8
 66
     8
 43
1.0
 76
     1
 77
     6
 78
     2
 67
     7
 79
     5
170
     0
171
     0
290
     0
174
     0
 93
        1
 44
0.0
173
     0
291
     1
 45
0.0
1001
ACAD
1000
AcDbSavedByObjectVersion
1070
     0
  0
VISUALSTYLE
  5
34
102
{ACAD_REACTORS
330
2A
102
}
330
2A
100
AcDbVisualStyle
  2
Conceptual
 70
     9
 71
     3
 72
     2
 73
     0
 90
        0
 40
-0.6
 41
-30.0
 62
     5
 63
     7
 74
     2
 91
        2
 64
     7
 65
   257
 75
     1
175
     1
 42
40.0
 92
        8
 66
     7
 43
1.0
 76
     1
 77
     6
 78
     2
 67
     7
 79
     3
170
     0
171
     0
290
     0
174
     0
 93
        1
 44
0.0
173
     0
291
     0
 45
0.0
1001
ACAD
1000
AcDbSavedByObjectVersion
1070
     0
  0
VISUALSTYLE
  5
35
102
{ACAD_REACTORS
330
2A
102
}
330
2A
100
AcDbVisualStyle
  2
Dim
 70
    11
 71
     2
 72
     2
 73
     0
 90
        0
 40
-0.6
 41
-30.0
 62
     5
 63
     7
 74
     1
 91
        4
 64
     7
 65
   257
 75
     1
175
     1
 42
1.0
 92
        8
 66
     7
 43
1.0
 76
     1
 77
     6
 78
     2
 67
     7
 79
     5
170
     0
171
     0
290
     0
174
     0
 93
        1
 44
-50.0
173
     0
291
     1
 45
0.0
1001
ACAD
1000
AcDbSavedByObjectVersion
1070
     0
  0
VISUALSTYLE
  5
39
102
{ACAD_REACTORS
330
2A
102
}
330
2A
100
AcDbVisualStyle
  2
Facepattern
 70
    15
 71
     2
 72
     2
 73
     0
 90
        0
 40
-0.6
 41
-30.0
 62
     5
 63
     7
 74
     1
 91
        4
 64
     7
 65
   257
 75
     1
175
     1
 42
1.0
 92
        8
 66
     7
 43
1.0
 76
     1
 77
     6
 78
     2
 67
     7
 79
     5
170
     0
171
     0
290
     0
174
     0
 93
        1
 44
0.0
173
     0
291
     1
 45
0.0
1001
ACAD
1000
AcDbSavedByObjectVersion
1070
     0
  0
VISUALSTYLE
  5
2B
102
{ACAD_REACTORS
330
2A
102
}
330
2A
100
AcDbVisualStyle
  2
Flat
 70
     0
 71
     2
 72
     1
 73
     1
 90
        2
 40
-0.6
 41
30.0
 62
     5
 63
     7
 74
     0
 91
        4
 64
     7
 65
   257
 75
     1
175
     1
 42
1.0
 92
        8
 66
     7
 43
1.0
 76
     1
 77
     6
 78
     2
 67
     7
 79
     5
170
     0
171
     0
290
     0
174
     0
 93
       13
 44
0.0
173
     0
291
     1
 45
0.0
1001
ACAD
1000
AcDbSavedByObjectVersion
1070
     0
  0
VISUALSTYLE
  5
2C
102
{ACAD_REACTORS
330
2A
102
}
330
2A
100
AcDbVisualStyle
  2
FlatWithEdges
 70
     1
 71
     2
 72
     1
 73
     1
 90
        2
 40
-0.6
 41
30.0
 62
     5
 63
     7
 74
     1
 91
        4
 64
     7
 65
   257
 75
     1
175
     1
 42
1.0
 92
        0
 66
   257
 43
1.0
 76
     1
 77
     6
 78
     2
 67
     7
 79
     5
170
     0
171
     0
290
     0
174
     0
 93
       13
 44
0.0
173
     0
291
     1
 45
0.0
1001
ACAD
1000
AcDbSavedByObjectVersion
1070
     0
  0
VISUALSTYLE
  5
2D
102
{ACAD_REACTORS
330
2A
102
}
330
2A
100
AcDbVisualStyle
  2
Gouraud
 70
     2
 71
     2
 72
     2
 73
     1
 90
        2
 40
-0.6
 41
30.0
 62
     5
 63
     7
 74
     0
 91
        4
 64
     7
 65
   257
 75
     1
175
     1
 42
1.0
 92
        0
 66
     7
 43
1.0
 76
     1
 77
     6
 78
     2
 67
     7
 79
     5
170
     0
171
     0
290
     0
174
     0
 93
       13
 44
0.0
173
     0
291
     1
 45
0.0
1001
ACAD
1000
AcDbSavedByObjectVersion
1070
     0
  0
VISUALSTYLE
  5
2E
102
{ACAD_REACTORS
330
2A
102
}
330
2A
100
AcDbVisualStyle
  2
GouraudWithEdges
 70
     3
 71
     2
 72
     2
 73
     1
 90
        2
 40
-0.6
 41
30.0
 62
     5
 63
     7
 74
     1
 91
        4
 64
     7
 65
   257
 75
     1
175
     1
 42
1.0
 92
        0
 66
   257
 43
1.0
 76
     1
 77
     6
 78
     2
 67
     7
 79
     5
170
     0
171
     0
290
     0
174
     0
 93
       13
 44
0.0
173
     0
291
     1
 45
0.0
1001
ACAD
1000
AcDbSavedByObjectVersion
1070
     0
  0
VISUALSTYLE
  5
38
102
{ACAD_REACTORS
330
2A
102
}
330
2A
100
AcDbVisualStyle
  2
Linepattern
 70
    14
 71
     2
 72
     2
 73
     0
 90
        0
 40
-0.6
 41
-30.0
 62
     5
 63
     7
 74
     1
 91
        4
 64
     7
 65
   257
 75
     7
175
     7
 42
1.0
 92
        8
 66
     7
 43
1.0
 76
     1
 77
     6
 78
     2
 67
     7
 79
     5
170
     0
171
     0
290
     0
174
     0
 93
        1
 44
0.0
173
     0
291
     1
 45
0.0
1001
ACAD
1000
AcDbSavedByObjectVersion
1070
     0
  0
VISUALSTYLE
  5
33
102
{ACAD_REACTORS
330
2A
102
}
330
2A
100
AcDbVisualStyle
  2
Realistic
 70
     8
 71
     2
 72
     2
 73
     0
 90
        0
 40
-0.6
 41
-30.0
 62
     5
 63
     7
 74
     1
 91
        0
 64
     7
 65
   257
 75
     1
175
     1
 42
1.0
 92
        8
 66
     8
 43
1.0
 76
     1
 77
     6
 78
     2
 67
     7
 79
     5
170
     0
171
     0
290
     0
174
     0
 93
       13
 44
0.0
173
     0
291
     0
 45
0.0
1001
ACAD
1000
AcDbSavedByObjectVersion
1070
     0
  0
VISUALSTYLE
  5
37
102
{ACAD_REACTORS
330
2A
102
}
330
2A
100
AcDbVisualStyle
  2
Thicken
 70
    13
 71
     2
 72
     2
 73
     0
 90
        0
 40
-0.6
 41
-30.0
 62
     5
 63
     7
 74
     1
 91
        4
 64
     7
 65
   257
 75
     1
175
     1
 42
1.0
 92
       12
 66
     7
 43
1.0
 76
     1
 77
     6
 78
     2
 67
     7
 79
     5
170
     0
171
     0
290
     0
174
     0
 93
        1
 44
0.0
173
     0
291
     1
 45
0.0
1001
ACAD
1000
AcDbSavedByObjectVersion
1070
     0
  0
XRECORD
  5
1A0
102
{ACAD_REACTORS
330
197
102
}
330
197
100
AcDbXrecord
 90
        0
  0
XRECORD
  5
1B6
102
{ACAD_REACTORS
330
197
102
}
330
197
100
AcDbXrecord
1000
DSTYLE
1002
{
1070
   340
340
11
1002
}
  0
XRECORD
  5
1A1
102
{ACAD_REACTORS
330
197
102
}
330
197
100
AcDbXrecord
  1
{FB6EC64D-D8C8-4810-BD80-C1DE926EE9A8}
  0
XRECORD
  5
19A
102
{ACAD_REACTORS
330
197
102
}
330
197
100
AcDbXrecord
  1

  0
XRECORD
  5
19F
102
{ACAD_REACTORS
330
197
102
}
330
197
100
AcDbXrecord
 90
        1
  0
XRECORD
  5
19C
102
{ACAD_REACTORS
330
197
102
}
330
197
100
AcDbXrecord
340
1A
  0
XRECORD
  5
19E
102
{ACAD_REACTORS
330
197
102
}
330
197
100
AcDbXrecord
 90
    10781
  0
XRECORD
  5
19D
102
{ACAD_REACTORS
330
197
102
}
330
197
100
AcDbXrecord
340
19
  0
XRECORD
  5
1A3
102
{ACAD_REACTORS
330
197
102
}
330
197
100
AcDbXrecord
 40
0.0
  0
XRECORD
  5
1A6
102
{ACAD_REACTORS
330
197
102
}
330
197
100
AcDbXrecord
340
0
  0
XRECORD
  5
1AC
102
{ACAD_REACTORS
330
197
102
}
330
197
100
AcDbXrecord
 10
0.0
 20
0.0
 30
0.0
  0
XRECORD
  5
1A8
102
{ACAD_REACTORS
330
197
102
}
330
197
100
AcDbXrecord
 10
0.0
 20
0.0
 30
0.0
  0
XRECORD
  5
1AB
102
{ACAD_REACTORS
330
197
102
}
330
197
100
AcDbXrecord
 10
0.0
 20
0.0
 30
0.0
  0
XRECORD
  5
1A9
102
{ACAD_REACTORS
330
197
102
}
330
197
100
AcDbXrecord
 10
0.0
 20
0.0
 30
0.0
  0
XRECORD
  5
1AA
102
{ACAD_REACTORS
330
197
102
}
330
197
100
AcDbXrecord
 10
0.0
 20
0.0
 30
0.0
  0
XRECORD
  5
1A7
102
{ACAD_REACTORS
330
197
102
}
330
197
100
AcDbXrecord
 10
0.0
 20
0.0
 30
0.0
  0
XRECORD
  5
1A4
102
{ACAD_REACTORS
330
197
102
}
330
197
100
AcDbXrecord
340
0
  0
XRECORD
  5
1A5
102
{ACAD_REACTORS
330
197
102
}
330
197
100
AcDbXrecord
 70
     0
  0
XRECORD
  5
19B
102
{ACAD_REACTORS
330
197
102
}
330
197
100
AcDbXrecord
  1

  0
XRECORD
  5
198
102
{ACAD_REACTORS
330
197
102
}
330
197
100
AcDbXrecord
 90
        1
  0
XRECORD
  5
199
102
{ACAD_REACTORS
330
197
102
}
330
197
100
AcDbXrecord
 90
       70
  0
XRECORD
  5
1AF
102
{ACAD_REACTORS
330
197
102
}
330
197
100
AcDbXrecord
340
0
  0
XRECORD
  5
1B5
102
{ACAD_REACTORS
330
197
102
}
330
197
100
AcDbXrecord
 10
0.0
 20
0.0
 30
0.0
  0
XRECORD
  5
1B1
102
{ACAD_REACTORS
330
197
102
}
330
197
100
AcDbXrecord
 10
0.0
 20
0.0
 30
0.0
  0
XRECORD
  5
1B4
102
{ACAD_REACTORS
330
197
102
}
330
197
100
AcDbXrecord
 10
0.0
 20
0.0
 30
0.0
  0
XRECORD
  5
1B2
102
{ACAD_REACTORS
330
197
102
}
330
197
100
AcDbXrecord
 10
0.0
 20
0.0
 30
0.0
  0
XRECORD
  5
1B3
102
{ACAD_REACTORS
330
197
102
}
330
197
100
AcDbXrecord
 10
0.0
 20
0.0
 30
0.0
  0
XRECORD
  5
1B0
102
{ACAD_REACTORS
330
197
102
}
330
197
100
AcDbXrecord
 10
0.0
 20
0.0
 30
0.0
  0
XRECORD
  5
1AD
102
{ACAD_REACTORS
330
197
102
}
330
197
100
AcDbXrecord
340
0
  0
XRECORD
  5
1AE
102
{ACAD_REACTORS
330
197
102
}
330
197
100
AcDbXrecord
 70
     0
  0
XRECORD
  5
1A2
102
{ACAD_REACTORS
330
197
102
}
330
197
100
AcDbXrecord
  1
{FAEB1C32-E019-11D5-929B-00C0DF256EC4}
  0
ENDSEC
  0
EOF
